<mxfile host="Electron" modified="2024-04-23T11:25:58.570Z" agent="Mozilla/5.0 (Windows NT 10.0; Win64; x64) AppleWebKit/537.36 (KHTML, like Gecko) draw.io/24.2.5 Chrome/120.0.6099.109 Electron/28.1.0 Safari/537.36" etag="J1Dl6kyAjgH_fkXKujSB" version="24.2.5" type="device">
  <diagram id="AakH-XqxvQ_Q_MR1TcJB" name="Page-1">
    <mxGraphModel dx="2537" dy="993" grid="1" gridSize="10" guides="1" tooltips="1" connect="1" arrows="1" fold="1" page="1" pageScale="1" pageWidth="850" pageHeight="1100" math="0" shadow="0">
      <root>
        <mxCell id="0" />
        <mxCell id="1" parent="0" />
        <mxCell id="144" value="" style="rounded=0;whiteSpace=wrap;html=1;labelBackgroundColor=none;fontFamily=VK Sans Display Regular;fontColor=#212121;fillColor=#FFFFFF;backgroundOutline=0;strokeColor=none;fontSize=14;" parent="1" vertex="1">
          <mxGeometry x="-70" y="50" width="930" height="570" as="geometry" />
        </mxCell>
        <mxCell id="3-X2qmHWbimKNn7KAHb6-204" value="       Network" style="group;backgroundOutline=0;fontFamily=VK Sans Display Regular;fillColor=#87D6E8;rounded=1;strokeColor=#FFFFFF;arcSize=12;absoluteArcSize=1;fontStyle=1;fontSize=14;fontColor=#212121;align=left;" vertex="1" connectable="0" parent="1">
          <mxGeometry x="622" y="373" width="210" height="101" as="geometry" />
        </mxCell>
        <mxCell id="3-X2qmHWbimKNn7KAHb6-205" value="&lt;font style=&quot;font-size: 14px;&quot;&gt;Subnet&lt;br style=&quot;font-size: 14px;&quot;&gt;192.168.199.0/24&lt;br style=&quot;font-size: 14px;&quot;&gt;&lt;/font&gt;" style="rounded=1;whiteSpace=wrap;html=1;fontFamily=VK Sans Display Regular;strokeColor=none;arcsize=12;fillColor=#FFF;spacing=0;spacingTop=12;spacingBottom=12;arcSize=12;absoluteArcSize=1;backgroundOutline=0;strokeWidth=4;fontColor=#212121;fontSize=14;" vertex="1" parent="3-X2qmHWbimKNn7KAHb6-204">
          <mxGeometry x="25" y="34" width="160" height="50" as="geometry" />
        </mxCell>
        <mxCell id="109" value="" style="endArrow=none;html=1;fontFamily=VK Sans Display Regular;fontColor=#212121;rounded=0;strokeColor=#7C8A9A;endFill=0;strokeWidth=2;arcSize=8;exitX=0.917;exitY=0.514;exitDx=0;exitDy=0;backgroundOutline=0;exitPerimeter=0;fontSize=14;" parent="1" source="3-X2qmHWbimKNn7KAHb6-147" target="3-X2qmHWbimKNn7KAHb6-205" edge="1">
          <mxGeometry width="50" height="50" relative="1" as="geometry">
            <mxPoint x="548.0000000000005" y="441" as="sourcePoint" />
            <mxPoint x="653" y="512.4999999999998" as="targetPoint" />
          </mxGeometry>
        </mxCell>
        <mxCell id="115" value="" style="endArrow=none;html=1;fontFamily=VK Sans Display Regular;fontColor=#212121;rounded=0;strokeColor=#7C8A9A;endFill=0;strokeWidth=2;arcSize=8;backgroundOutline=0;fontSize=14;" parent="1" target="3-X2qmHWbimKNn7KAHb6-205" edge="1">
          <mxGeometry width="50" height="50" relative="1" as="geometry">
            <mxPoint x="727" y="340" as="sourcePoint" />
            <mxPoint x="732" y="390" as="targetPoint" />
          </mxGeometry>
        </mxCell>
        <mxCell id="112" value="" style="endArrow=none;html=1;fontFamily=VK Sans Display Regular;fontColor=#212121;rounded=0;strokeColor=#7C8A9A;endFill=0;strokeWidth=2;arcSize=8;backgroundOutline=0;fontSize=14;" parent="1" source="3-X2qmHWbimKNn7KAHb6-205" target="3-X2qmHWbimKNn7KAHb6-202" edge="1">
          <mxGeometry width="50" height="50" relative="1" as="geometry">
            <mxPoint x="736" y="539" as="sourcePoint" />
            <mxPoint x="736" y="567.9999999999998" as="targetPoint" />
          </mxGeometry>
        </mxCell>
        <mxCell id="3-X2qmHWbimKNn7KAHb6-215" value="&lt;font face=&quot;VK Sans Display Regular&quot; color=&quot;#212121&quot;&gt;&lt;span style=&quot;font-size: 14px;&quot;&gt;&lt;b&gt;Notations&lt;/b&gt;&lt;/span&gt;&lt;/font&gt;" style="text;html=1;align=center;verticalAlign=middle;whiteSpace=wrap;rounded=0;" vertex="1" parent="1">
          <mxGeometry x="297.5" y="58" width="180" height="30" as="geometry" />
        </mxCell>
        <mxCell id="3-X2qmHWbimKNn7KAHb6-211" value="&lt;b&gt;common-public &lt;/b&gt;network elements" style="rounded=1;whiteSpace=wrap;html=1;absoluteArcSize=1;fillColor=#E188D0;fontFamily=VK Sans Display Regular;fontColor=#212121;fontSize=14;strokeColor=none;" vertex="1" parent="1">
          <mxGeometry x="116" y="95" width="258" height="40" as="geometry" />
        </mxCell>
        <mxCell id="3-X2qmHWbimKNn7KAHb6-212" value="&lt;b&gt;common-private &lt;/b&gt;network elements" style="rounded=1;whiteSpace=wrap;html=1;absoluteArcSize=1;fillColor=#87D6E8;fontFamily=VK Sans Display Regular;fontColor=#212121;fontSize=14;strokeColor=none;" vertex="1" parent="1">
          <mxGeometry x="403.5" y="95" width="240" height="40" as="geometry" />
        </mxCell>
        <mxCell id="86" value="       Network" style="group;backgroundOutline=0;fontFamily=VK Sans Display Regular;fillColor=#E188D0;rounded=1;strokeColor=#FFFFFF;arcSize=12;absoluteArcSize=1;fontStyle=1;fontSize=14;fontColor=#212121;align=left;" parent="1" vertex="1" connectable="0">
          <mxGeometry x="-32" y="374" width="210" height="101" as="geometry" />
        </mxCell>
        <mxCell id="88" value="&lt;font style=&quot;font-size: 14px;&quot;&gt;Subnet&lt;br style=&quot;font-size: 14px;&quot;&gt;192.168.200.0/24&lt;br style=&quot;font-size: 14px;&quot;&gt;&lt;/font&gt;" style="rounded=1;whiteSpace=wrap;html=1;fontFamily=VK Sans Display Regular;strokeColor=none;arcsize=12;fillColor=#FFF;spacing=0;spacingTop=12;spacingBottom=12;arcSize=12;absoluteArcSize=1;backgroundOutline=0;strokeWidth=4;fontColor=#212121;fontSize=14;" parent="86" vertex="1">
          <mxGeometry x="25" y="33" width="160" height="50" as="geometry" />
        </mxCell>
        <mxCell id="106" value="common router&#xa;net.ipv4.ip_forward=1" style="shape=image;verticalLabelPosition=bottom;labelBackgroundColor=none;verticalAlign=top;aspect=fixed;imageAspect=0;image=data:image/svg+xml,PHN2ZyB4bWxucz0iaHR0cDovL3d3dy53My5vcmcvMjAwMC9zdmciIGZpbGw9Im5vbmUiIHZpZXdCb3g9IjAgMCAzMCAzMCIgaGVpZ2h0PSIzMCIgd2lkdGg9IjMwIj4KPHBhdGggZmlsbD0iIzAwNzdGRiIgZD0iTTIuMzE0MjggMTVDMi4zMTQyOCA3Ljk5Mzg3IDcuOTkzODcgMi4zMTQyOCAxNSAyLjMxNDI4QzIyLjAwNjEgMi4zMTQyOCAyNy42ODU3IDcuOTkzODcgMjcuNjg1NyAxNUMyNy42ODU3IDIyLjAwNjEgMjIuMDA2MSAyNy42ODU3IDE1IDI3LjY4NTdDNy45OTM4NyAyNy42ODU3IDIuMzE0MjggMjIuMDA2MSAyLjMxNDI4IDE1Wk0xNSAwLjI1NzE0MUM2Ljg1Nzc0IDAuMjU3MTQxIDAuMjU3MTQxIDYuODU3NzQgMC4yNTcxNDEgMTVDMC4yNTcxNDEgMjMuMTQyMyA2Ljg1Nzc0IDI5Ljc0MjkgMTUgMjkuNzQyOUMyMy4xNDIzIDI5Ljc0MjkgMjkuNzQyOSAyMy4xNDIzIDI5Ljc0MjkgMTVDMjkuNzQyOSA2Ljg1Nzc0IDIzLjE0MjMgMC4yNTcxNDEgMTUgMC4yNTcxNDFaTTE4LjUxNzMgNi4zMjYyNUMxOC44NzQzIDYuNjYxMSAxOC44ODgxIDcuMjE3NTYgMTguNTQ4MSA3LjU2OTE1QzE4LjIwOCA3LjkyMDczIDE3LjY0MjggNy45MzQzMSAxNy4yODU3IDcuNTk5NDZMMTUuODkyOSA2LjUwMTgzVjE3LjkzMDRMMTUuODkyOCAxNy45MzlWMjMuNDk4MkwxNy4yODU3IDIyLjQwMDVDMTcuNjQyOCAyMi4wNjU3IDE4LjIwOCAyMi4wNzkzIDE4LjU0OCAyMi40MzA5QzE4Ljg4ODEgMjIuNzgyNCAxOC44NzQzIDIzLjMzODkgMTguNTE3MyAyMy42NzM3TDE1LjYxNTggMjYuMTg2MUMxNS4yNzA5IDI2LjUwOTQgMTQuNzI5MSAyNi41MDk0IDE0LjM4NDIgMjYuMTg2MUwxMS40ODI4IDIzLjY3MzdDMTEuMTI1NyAyMy4zMzg5IDExLjExMTkgMjIuNzgyNCAxMS40NTIgMjIuNDMwOUMxMS43OTIgMjIuMDc5MyAxMi4zNTcyIDIyLjA2NTcgMTIuNzE0MyAyMi40MDA1TDE0LjEwNzEgMjMuNDk4MkwxNC4xMDcxIDEyLjA2OTZMMTQuMTA3MiAxMi4wNjA5VjYuNTAxODNMMTIuNzE0MyA3LjU5OTQ2QzEyLjM1NzIgNy45MzQzMSAxMS43OTIgNy45MjA3MyAxMS40NTIgNy41NjkxNUMxMS4xMTE5IDcuMjE3NTYgMTEuMTI1NyA2LjY2MTEgMTEuNDgyOCA2LjMyNjI1TDE0LjM4NDMgMy44MTM5NUMxNC43MjkxIDMuNDkwNTkgMTUuMjcxIDMuNDkwNTkgMTUuNjE1OCAzLjgxMzk1TDE4LjUxNzMgNi4zMjYyNVpNOS4wOTc1MiAxOC45MTM4QzkuNDQ5MTEgMTkuMjUzOSAxMC4wMDU2IDE5LjI0MDEgMTAuMzQwNCAxOC44ODNMMTIuODUyNyAxNS45ODE2QzEzLjE3NjEgMTUuNjM2NyAxMy4xNzYxIDE1LjA5NDkgMTIuODUyNyAxNC43NUwxMC4zNDA0IDExLjg0ODVDMTAuMDA1NiAxMS40OTE0IDkuNDQ5MTEgMTEuNDc3NyA5LjA5NzUyIDExLjgxNzdDOC43NDU5NCAxMi4xNTc4IDguNzMyMzYgMTIuNzIzIDkuMDY3MjEgMTMuMDgwMUwxMC4xNjQ4IDE0LjQ3MjlINC40NTA1NEMzLjk2NTAyIDE0LjQ3MjkgMy41NzE0MiAxNC44NzI3IDMuNTcxNDIgMTUuMzY1OEMzLjU3MTQyIDE1Ljg1ODkgMy45NjUwMSAxNi4yNTg3IDQuNDUwNTQgMTYuMjU4N0wxMC4xNjQ4IDE2LjI1ODdMOS4wNjcyMSAxNy42NTE1QzguNzMyMzYgMTguMDA4NiA4Ljc0NTk0IDE4LjU3MzcgOS4wOTc1MiAxOC45MTM4Wk0xOS42NjM0IDExLjg0ODVDMTkuOTk4MiAxMS40OTE0IDIwLjU1NDcgMTEuNDc3NyAyMC45MDYzIDExLjgxNzdDMjEuMjU3OSAxMi4xNTc4IDIxLjI3MTUgMTIuNzIzIDIwLjkzNjYgMTMuMDhMMTkuODM5IDE0LjQ3MjlIMjUuNTUzM0MyNi4wMzg4IDE0LjQ3MjkgMjYuNDMyNCAxNC44NzI2IDI2LjQzMjQgMTUuMzY1OEMyNi40MzI0IDE1Ljg1ODkgMjYuMDM4OCAxNi4yNTg2IDI1LjU1MzMgMTYuMjU4NkgxOS44MzlMMjAuOTM2NiAxNy42NTE1QzIxLjI3MTUgMTguMDA4NiAyMS4yNTc5IDE4LjU3MzcgMjAuOTA2MyAxOC45MTM4QzIwLjU1NDcgMTkuMjUzOSAxOS45OTgyIDE5LjI0MDEgMTkuNjYzNCAxOC44ODNMMTcuMTUxMSAxNS45ODE1QzE2LjgyNzcgMTUuNjM2NyAxNi44Mjc3IDE1LjA5NDggMTcuMTUxMSAxNC43NUwxOS42NjM0IDExLjg0ODVaIiBjbGlwLXJ1bGU9ImV2ZW5vZGQiIGZpbGwtcnVsZT0iZXZlbm9kZCIvPgo8L3N2Zz4=;fontFamily=VK Sans Display Regular;fontColor=#212121;backgroundOutline=0;fontSize=14;" parent="1" vertex="1">
          <mxGeometry x="365" y="411" width="41" height="41" as="geometry" />
        </mxCell>
        <mxCell id="107" value="" style="endArrow=none;html=1;fontFamily=VK Sans Display Regular;fontColor=#212121;rounded=0;strokeColor=#7C8A9A;endFill=0;strokeWidth=2;arcSize=8;exitX=0.898;exitY=0.507;exitDx=0;exitDy=0;entryX=0.044;entryY=0.502;entryDx=0;entryDy=0;backgroundOutline=0;exitPerimeter=0;entryPerimeter=0;fontSize=14;" parent="1" source="3-X2qmHWbimKNn7KAHb6-146" target="106" edge="1">
          <mxGeometry width="50" height="50" relative="1" as="geometry">
            <mxPoint x="263" y="511" as="sourcePoint" />
            <mxPoint x="74.99999999999977" y="643" as="targetPoint" />
          </mxGeometry>
        </mxCell>
        <mxCell id="110" value="" style="endArrow=none;html=1;fontFamily=VK Sans Display Regular;fontColor=#212121;rounded=0;strokeColor=#7C8A9A;endFill=0;strokeWidth=2;arcSize=8;exitX=1;exitY=0.5;exitDx=0;exitDy=0;entryX=0;entryY=0.5;entryDx=0;entryDy=0;backgroundOutline=0;fontSize=14;" parent="1" source="88" target="3-X2qmHWbimKNn7KAHb6-146" edge="1">
          <mxGeometry width="50" height="50" relative="1" as="geometry">
            <mxPoint x="302.99999999999955" y="520.9999999999998" as="sourcePoint" />
            <mxPoint x="269" y="511" as="targetPoint" />
          </mxGeometry>
        </mxCell>
        <mxCell id="114" value="" style="endArrow=none;html=1;fontFamily=VK Sans Display Regular;fontColor=#212121;rounded=0;strokeColor=#7C8A9A;endFill=0;strokeWidth=2;arcSize=8;backgroundOutline=0;fontSize=14;" parent="1" target="88" edge="1">
          <mxGeometry width="50" height="50" relative="1" as="geometry">
            <mxPoint x="73" y="340" as="sourcePoint" />
            <mxPoint x="72.99999999999977" y="377" as="targetPoint" />
          </mxGeometry>
        </mxCell>
        <mxCell id="126" value="" style="endArrow=none;html=1;fontFamily=VK Sans Display Regular;fontColor=#212121;rounded=0;strokeColor=#7C8A9A;endFill=0;strokeWidth=2;arcSize=8;backgroundOutline=0;fontSize=14;" parent="1" source="3-X2qmHWbimKNn7KAHb6-149" edge="1">
          <mxGeometry width="50" height="50" relative="1" as="geometry">
            <mxPoint x="735" y="246" as="sourcePoint" />
            <mxPoint x="727" y="247" as="targetPoint" />
          </mxGeometry>
        </mxCell>
        <mxCell id="137" value="&lt;span style=&quot;background-color: rgb(255, 255, 255); font-size: 14px;&quot;&gt;&lt;span style=&quot;font-size: 14px;&quot;&gt;Static route&lt;/span&gt;&lt;br style=&quot;font-size: 14px;&quot;&gt;&lt;span style=&quot;font-size: 14px;&quot;&gt;192.168.199.0/24&lt;/span&gt;&lt;br style=&quot;font-size: 14px;&quot;&gt;&lt;/span&gt;" style="endArrow=open;html=1;fontFamily=VK Sans Display Regular;fontColor=#212121;rounded=1;strokeColor=#7C8A9A;endFill=0;arcsize=8;startArrow=none;startFill=0;strokeWidth=2;labelBackgroundColor=#FFFFFF;textOpacity=70;verticalAlign=middle;spacing=8;fontSize=14;arcSize=8;dashed=1;exitX=1;exitY=0.5;exitDx=0;exitDy=0;entryX=0.487;entryY=0.075;entryDx=0;entryDy=0;backgroundOutline=0;entryPerimeter=0;" parent="1" source="3-X2qmHWbimKNn7KAHb6-155" target="3-X2qmHWbimKNn7KAHb6-146" edge="1">
          <mxGeometry x="0.2151" width="50" height="50" relative="1" as="geometry">
            <mxPoint x="98" y="133" as="sourcePoint" />
            <mxPoint x="281" y="499" as="targetPoint" />
            <Array as="points">
              <mxPoint x="250" y="200" />
            </Array>
            <mxPoint as="offset" />
          </mxGeometry>
        </mxCell>
        <mxCell id="139" value="&lt;span style=&quot;background-color: rgb(255, 255, 255); font-size: 14px;&quot;&gt;&lt;span style=&quot;font-size: 14px;&quot;&gt;Static route&lt;/span&gt;&lt;br style=&quot;font-size: 14px;&quot;&gt;&lt;span style=&quot;font-size: 14px;&quot;&gt;192.168.200.0/24&lt;/span&gt;&lt;br style=&quot;font-size: 14px;&quot;&gt;&lt;/span&gt;" style="endArrow=open;html=1;fontFamily=VK Sans Display Regular;fontColor=#212121;rounded=1;strokeColor=#7C8A9A;endFill=0;arcsize=8;startArrow=none;startFill=0;strokeWidth=2;labelBackgroundColor=#FFFFFF;textOpacity=70;verticalAlign=middle;spacing=8;fontSize=14;arcSize=8;dashed=1;backgroundOutline=0;entryX=0.512;entryY=0.079;entryDx=0;entryDy=0;entryPerimeter=0;" parent="1" source="3-X2qmHWbimKNn7KAHb6-203" target="3-X2qmHWbimKNn7KAHb6-147" edge="1">
          <mxGeometry x="0.2384" width="50" height="50" relative="1" as="geometry">
            <mxPoint x="713" y="133" as="sourcePoint" />
            <mxPoint x="534" y="409" as="targetPoint" />
            <Array as="points">
              <mxPoint x="532" y="201" />
            </Array>
            <mxPoint as="offset" />
          </mxGeometry>
        </mxCell>
        <mxCell id="113" value="" style="endArrow=none;html=1;fontFamily=VK Sans Display Regular;fontColor=#212121;rounded=0;strokeColor=#7C8A9A;endFill=0;strokeWidth=2;arcSize=8;entryX=0.5;entryY=0;entryDx=0;entryDy=0;startArrow=none;backgroundOutline=0;fontSize=14;" parent="1" target="106" edge="1">
          <mxGeometry width="50" height="50" relative="1" as="geometry">
            <mxPoint x="386" y="340" as="sourcePoint" />
            <mxPoint x="-4" y="725" as="targetPoint" />
          </mxGeometry>
        </mxCell>
        <mxCell id="3-X2qmHWbimKNn7KAHb6-149" value="Router interface" style="shape=image;verticalLabelPosition=bottom;labelBackgroundColor=none;verticalAlign=top;aspect=fixed;imageAspect=0;image=data:image/svg+xml,PHN2ZyB4bWxucz0iaHR0cDovL3d3dy53My5vcmcvMjAwMC9zdmciIGZpbGw9Im5vbmUiIHZpZXdCb3g9IjAgMCAyNCAyNCIgaGVpZ2h0PSIyNCIgd2lkdGg9IjI0Ij4mI3hhOzxnIGNsaXAtcGF0aD0idXJsKCNjbGlwMF8xXzE4KSI+JiN4YTs8cGF0aCBmaWxsPSIjODdENkU4IiBkPSJNNy4xMTQ2MyA2Ljg5NTgxQzYuNTEwNTcgNi44OTU4MSA2LjAyMDg4IDcuMzg1NSA2LjAyMDg4IDcuOTg5NTZWMTYuMDEwNEM2LjAyMDg4IDE2LjYxNDUgNi41MTA1NyAxNy4xMDQxIDcuMTE0NjMgMTcuMTA0MUM3LjcxODY5IDE3LjEwNDEgOC4yMDgzOCAxNi42MTQ1IDguMjA4MzggMTYuMDEwNFY3Ljk4OTU2QzguMjA4MzggNy4zODU1IDcuNzE4NjkgNi44OTU4MSA3LjExNDYzIDYuODk1ODFaIi8+JiN4YTs8cGF0aCBmaWxsPSIjODdENkU4IiBkPSJNMTIuMDc0MSA2Ljg5NTgxQzExLjI2ODcgNi44OTU4MSAxMC42MTU4IDcuNTQ4NzMgMTAuNjE1OCA4LjM1NDE1VjE2LjAxMDRDMTAuNjE1OCAxNi42MTQ1IDExLjEwNTUgMTcuMTA0MSAxMS43MDk1IDE3LjEwNDFDMTIuMzEzNiAxNy4xMDQxIDEyLjgwMzMgMTYuNjE0NSAxMi44MDMzIDE2LjAxMDRWMTMuNzVIMTQuOTE3OUMxNS40NjIzIDEzLjc1IDE1Ljk1ODEgMTMuNjY3MyAxNi40MDU0IDEzLjUwMjFDMTYuODUyNiAxMy4zMjcxIDE3LjIzNjYgMTMuMDg4OSAxNy41NTc0IDEyLjc4NzVDMTcuODc4MyAxMi40NzY0IDE4LjEyNjIgMTIuMTExOCAxOC4zMDEyIDExLjY5MzdDMTguNDc2MiAxMS4yNzU3IDE4LjU2MzcgMTAuODE4NyAxOC41NjM3IDEwLjMyMjlDMTguNTYzNyA5LjgyNzA2IDE4LjQ3NjIgOS4zNzAxMiAxOC4zMDEyIDguOTUyMDZDMTguMTI2MiA4LjUzNDAxIDE3Ljg3ODMgOC4xNzQyOSAxNy41NTc0IDcuODcyOUMxNy4yMzY2IDcuNTYxNzkgMTYuODUyNiA3LjMyMzU5IDE2LjQwNTQgNy4xNTgzMUMxNS45NTgxIDYuOTgzMzEgMTUuNDYyMyA2Ljg5NTgxIDE0LjkxNzkgNi44OTU4MUgxMi4wNzQxWk0xNS44OTQ5IDExLjMyOTFDMTUuNjMyNCAxMS41ODE5IDE1LjI4MjQgMTEuNzA4MyAxNC44NDQ5IDExLjcwODNIMTIuODAzM1Y4LjkzNzQ4SDE0Ljg0NDlDMTUuMjgyNCA4LjkzNzQ4IDE1LjYzMjQgOS4wNjg3MyAxNS44OTQ5IDkuMzMxMjNDMTYuMTY3MiA5LjU4NDAxIDE2LjMwMzMgOS45MTQ1NiAxNi4zMDMzIDEwLjMyMjlDMTYuMzAzMyAxMC43MzEyIDE2LjE2NzIgMTEuMDY2NiAxNS44OTQ5IDExLjMyOTFaIiBjbGlwLXJ1bGU9ImV2ZW5vZGQiIGZpbGwtcnVsZT0iZXZlbm9kZCIvPiYjeGE7PHBhdGggZmlsbD0iIzg3RDZFOCIgZD0iTTAuMzMzMzQ0IDkuNjY2NjVDMC4zMzMzNDQgNi4zOTk2NyAwLjMzMzM0NCA0Ljc2NjE5IDAuOTY5MTM5IDMuNTE4MzdDMS41Mjg0IDIuNDIwNzYgMi40MjA3OSAxLjUyODM3IDMuNTE4NCAwLjk2OTEwOEM0Ljc2NjIyIDAuMzMzMzEzIDYuMzk5NyAwLjMzMzMxMyA5LjY2NjY4IDAuMzMzMzEzSDE0LjMzMzNDMTcuNjAwMyAwLjMzMzMxMyAxOS4yMzM4IDAuMzMzMzEzIDIwLjQ4MTYgMC45NjkxMDhDMjEuNTc5MiAxLjUyODM3IDIyLjQ3MTYgMi40MjA3NiAyMy4wMzA5IDMuNTE4MzdDMjMuNjY2NyA0Ljc2NjE5IDIzLjY2NjcgNi4zOTk2NyAyMy42NjY3IDkuNjY2NjVWMTQuMzMzM0MyMy42NjY3IDE3LjYwMDMgMjMuNjY2NyAxOS4yMzM4IDIzLjAzMDkgMjAuNDgxNkMyMi40NzE2IDIxLjU3OTIgMjEuNTc5MiAyMi40NzE2IDIwLjQ4MTYgMjMuMDMwOEMxOS4yMzM4IDIzLjY2NjYgMTcuNjAwMyAyMy42NjY2IDE0LjMzMzMgMjMuNjY2Nkg5LjY2NjY4QzYuMzk5NyAyMy42NjY2IDQuNzY2MjIgMjMuNjY2NiAzLjUxODQgMjMuMDMwOEMyLjQyMDc5IDIyLjQ3MTYgMS41Mjg0IDIxLjU3OTIgMC45NjkxMzkgMjAuNDgxNkMwLjMzMzM0NCAxOS4yMzM4IDAuMzMzMzQ0IDE3LjYwMDMgMC4zMzMzNDQgMTQuMzMzM1Y5LjY2NjY1Wk05LjY2NjY4IDIuNTIwODFIMTQuMzMzM0MxNi4wMDI5IDIuNTIwODEgMTcuMTIzNiAyLjUyMjUxIDE3Ljk4NjUgMi41OTMwMkMxOC44MjQgMi42NjE0NCAxOS4yMjQ0IDIuNzgzNiAxOS40ODg1IDIuOTE4MThDMjAuMTc0NSAzLjI2NzcyIDIwLjczMjMgMy44MjU0NiAyMS4wODE4IDQuNTExNDdDMjEuMjE2NCA0Ljc3NTYxIDIxLjMzODUgNS4xNzYwMSAyMS40MDcgNi4wMTM0NkMyMS40Nzc1IDYuODc2NDQgMjEuNDc5MiA3Ljk5NzA2IDIxLjQ3OTIgOS42NjY2NVYxNC4zMzMzQzIxLjQ3OTIgMTYuMDAyOSAyMS40Nzc1IDE3LjEyMzUgMjEuNDA3IDE3Ljk4NjVDMjEuMzM4NSAxOC44MjM5IDIxLjIxNjQgMTkuMjI0MyAyMS4wODE4IDE5LjQ4ODVDMjAuNzMyMyAyMC4xNzQ1IDIwLjE3NDUgMjAuNzMyMiAxOS40ODg1IDIxLjA4MThDMTkuMjI0NCAyMS4yMTY0IDE4LjgyNCAyMS4zMzg1IDE3Ljk4NjUgMjEuNDA2OUMxNy4xMjM2IDIxLjQ3NzQgMTYuMDAyOSAyMS40NzkxIDE0LjMzMzMgMjEuNDc5MUg5LjY2NjY4QzcuOTk3MDkgMjEuNDc5MSA2Ljg3NjQ3IDIxLjQ3NzQgNi4wMTM0OSAyMS40MDY5QzUuMTc2MDQgMjEuMzM4NSA0Ljc3NTY0IDIxLjIxNjQgNC41MTE1IDIxLjA4MThDMy44MjU1IDIwLjczMjIgMy4yNjc3NSAyMC4xNzQ1IDIuOTE4MjIgMTkuNDg4NUMyLjc4MzYzIDE5LjIyNDMgMi42NjE0NyAxOC44MjM5IDIuNTkzMDUgMTcuOTg2NUMyLjUyMjU0IDE3LjEyMzUgMi41MjA4NCAxNi4wMDI5IDIuNTIwODQgMTQuMzMzM1Y5LjY2NjY1QzIuNTIwODQgNy45OTcwNiAyLjUyMjU0IDYuODc2NDQgMi41OTMwNSA2LjAxMzQ2QzIuNjYxNDcgNS4xNzYwMSAyLjc4MzYzIDQuNzc1NjEgMi45MTgyMiA0LjUxMTQ3QzMuMjY3NzUgMy44MjU0NiAzLjgyNTUgMy4yNjc3MiA0LjUxMTUgMi45MTgxOEM0Ljc3NTY0IDIuNzgzNiA1LjE3NjA0IDIuNjYxNDQgNi4wMTM0OSAyLjU5MzAyQzYuODc2NDcgMi41MjI1MSA3Ljk5NzA5IDIuNTIwODEgOS42NjY2OCAyLjUyMDgxWiIgY2xpcC1ydWxlPSJldmVub2RkIiBmaWxsLXJ1bGU9ImV2ZW5vZGQiLz4mI3hhOzwvZz4mI3hhOzxkZWZzPiYjeGE7PGNsaXBQYXRoIGlkPSJjbGlwMF8xXzE4Ij4mI3hhOzxyZWN0IGZpbGw9IndoaXRlIiBoZWlnaHQ9IjI0IiB3aWR0aD0iMjQiLz4mI3hhOzwvY2xpcFBhdGg+JiN4YTs8L2RlZnM+JiN4YTs8L3N2Zz4=;fontColor=#212121;fontFamily=VK Sans Display Regular;fontSize=14;" vertex="1" parent="1">
          <mxGeometry x="715" y="290" width="24" height="24" as="geometry" />
        </mxCell>
        <mxCell id="3-X2qmHWbimKNn7KAHb6-148" value="Router interface" style="shape=image;verticalLabelPosition=bottom;labelBackgroundColor=none;verticalAlign=top;aspect=fixed;imageAspect=0;image=data:image/svg+xml,PHN2ZyB4bWxucz0iaHR0cDovL3d3dy53My5vcmcvMjAwMC9zdmciIGZpbGw9Im5vbmUiIHZpZXdCb3g9IjAgMCAyNCAyNCIgaGVpZ2h0PSIyNCIgd2lkdGg9IjI0Ij4mI3hhOzxnIGNsaXAtcGF0aD0idXJsKCNjbGlwMF8xXzIpIj4mI3hhOzxwYXRoIGZpbGw9IiNFMTg4RDAiIGQ9Ik03LjExNDYzIDYuODk1ODFDNi41MTA1NyA2Ljg5NTgxIDYuMDIwODggNy4zODU1IDYuMDIwODggNy45ODk1NlYxNi4wMTA0QzYuMDIwODggMTYuNjE0NSA2LjUxMDU3IDE3LjEwNDEgNy4xMTQ2MyAxNy4xMDQxQzcuNzE4NjkgMTcuMTA0MSA4LjIwODM4IDE2LjYxNDUgOC4yMDgzOCAxNi4wMTA0VjcuOTg5NTZDOC4yMDgzOCA3LjM4NTUgNy43MTg2OSA2Ljg5NTgxIDcuMTE0NjMgNi44OTU4MVoiLz4mI3hhOzxwYXRoIGZpbGw9IiNFMTg4RDAiIGQ9Ik0xMi4wNzQxIDYuODk1ODFDMTEuMjY4NyA2Ljg5NTgxIDEwLjYxNTggNy41NDg3MyAxMC42MTU4IDguMzU0MTVWMTYuMDEwNEMxMC42MTU4IDE2LjYxNDUgMTEuMTA1NSAxNy4xMDQxIDExLjcwOTUgMTcuMTA0MUMxMi4zMTM2IDE3LjEwNDEgMTIuODAzMyAxNi42MTQ1IDEyLjgwMzMgMTYuMDEwNFYxMy43NUgxNC45MTc5QzE1LjQ2MjMgMTMuNzUgMTUuOTU4MSAxMy42NjczIDE2LjQwNTQgMTMuNTAyMUMxNi44NTI2IDEzLjMyNzEgMTcuMjM2NiAxMy4wODg5IDE3LjU1NzQgMTIuNzg3NUMxNy44NzgzIDEyLjQ3NjQgMTguMTI2MiAxMi4xMTE4IDE4LjMwMTIgMTEuNjkzN0MxOC40NzYyIDExLjI3NTcgMTguNTYzNyAxMC44MTg3IDE4LjU2MzcgMTAuMzIyOUMxOC41NjM3IDkuODI3MDYgMTguNDc2MiA5LjM3MDEyIDE4LjMwMTIgOC45NTIwNkMxOC4xMjYyIDguNTM0MDEgMTcuODc4MyA4LjE3NDI5IDE3LjU1NzQgNy44NzI5QzE3LjIzNjYgNy41NjE3OSAxNi44NTI2IDcuMzIzNTkgMTYuNDA1NCA3LjE1ODMxQzE1Ljk1ODEgNi45ODMzMSAxNS40NjIzIDYuODk1ODEgMTQuOTE3OSA2Ljg5NTgxSDEyLjA3NDFaTTE1Ljg5NDkgMTEuMzI5MUMxNS42MzI0IDExLjU4MTkgMTUuMjgyNCAxMS43MDgzIDE0Ljg0NDkgMTEuNzA4M0gxMi44MDMzVjguOTM3NDhIMTQuODQ0OUMxNS4yODI0IDguOTM3NDggMTUuNjMyNCA5LjA2ODczIDE1Ljg5NDkgOS4zMzEyM0MxNi4xNjcyIDkuNTg0MDEgMTYuMzAzMyA5LjkxNDU2IDE2LjMwMzMgMTAuMzIyOUMxNi4zMDMzIDEwLjczMTIgMTYuMTY3MiAxMS4wNjY2IDE1Ljg5NDkgMTEuMzI5MVoiIGNsaXAtcnVsZT0iZXZlbm9kZCIgZmlsbC1ydWxlPSJldmVub2RkIi8+JiN4YTs8cGF0aCBmaWxsPSIjRTE4OEQwIiBkPSJNMC4zMzMzNDQgOS42NjY2NUMwLjMzMzM0NCA2LjM5OTY3IDAuMzMzMzQ0IDQuNzY2MTkgMC45NjkxMzkgMy41MTgzN0MxLjUyODQgMi40MjA3NiAyLjQyMDc5IDEuNTI4MzcgMy41MTg0IDAuOTY5MTA4QzQuNzY2MjIgMC4zMzMzMTMgNi4zOTk3IDAuMzMzMzEzIDkuNjY2NjggMC4zMzMzMTNIMTQuMzMzM0MxNy42MDAzIDAuMzMzMzEzIDE5LjIzMzggMC4zMzMzMTMgMjAuNDgxNiAwLjk2OTEwOEMyMS41NzkyIDEuNTI4MzcgMjIuNDcxNiAyLjQyMDc2IDIzLjAzMDkgMy41MTgzN0MyMy42NjY3IDQuNzY2MTkgMjMuNjY2NyA2LjM5OTY3IDIzLjY2NjcgOS42NjY2NVYxNC4zMzMzQzIzLjY2NjcgMTcuNjAwMyAyMy42NjY3IDE5LjIzMzggMjMuMDMwOSAyMC40ODE2QzIyLjQ3MTYgMjEuNTc5MiAyMS41NzkyIDIyLjQ3MTYgMjAuNDgxNiAyMy4wMzA4QzE5LjIzMzggMjMuNjY2NiAxNy42MDAzIDIzLjY2NjYgMTQuMzMzMyAyMy42NjY2SDkuNjY2NjhDNi4zOTk3IDIzLjY2NjYgNC43NjYyMiAyMy42NjY2IDMuNTE4NCAyMy4wMzA4QzIuNDIwNzkgMjIuNDcxNiAxLjUyODQgMjEuNTc5MiAwLjk2OTEzOSAyMC40ODE2QzAuMzMzMzQ0IDE5LjIzMzggMC4zMzMzNDQgMTcuNjAwMyAwLjMzMzM0NCAxNC4zMzMzVjkuNjY2NjVaTTkuNjY2NjggMi41MjA4MUgxNC4zMzMzQzE2LjAwMjkgMi41MjA4MSAxNy4xMjM2IDIuNTIyNTEgMTcuOTg2NSAyLjU5MzAyQzE4LjgyNCAyLjY2MTQ0IDE5LjIyNDQgMi43ODM2IDE5LjQ4ODUgMi45MTgxOEMyMC4xNzQ1IDMuMjY3NzIgMjAuNzMyMyAzLjgyNTQ2IDIxLjA4MTggNC41MTE0N0MyMS4yMTY0IDQuNzc1NjEgMjEuMzM4NSA1LjE3NjAxIDIxLjQwNyA2LjAxMzQ2QzIxLjQ3NzUgNi44NzY0NCAyMS40NzkyIDcuOTk3MDYgMjEuNDc5MiA5LjY2NjY1VjE0LjMzMzNDMjEuNDc5MiAxNi4wMDI5IDIxLjQ3NzUgMTcuMTIzNSAyMS40MDcgMTcuOTg2NUMyMS4zMzg1IDE4LjgyMzkgMjEuMjE2NCAxOS4yMjQzIDIxLjA4MTggMTkuNDg4NUMyMC43MzIzIDIwLjE3NDUgMjAuMTc0NSAyMC43MzIyIDE5LjQ4ODUgMjEuMDgxOEMxOS4yMjQ0IDIxLjIxNjQgMTguODI0IDIxLjMzODUgMTcuOTg2NSAyMS40MDY5QzE3LjEyMzYgMjEuNDc3NCAxNi4wMDI5IDIxLjQ3OTEgMTQuMzMzMyAyMS40NzkxSDkuNjY2NjhDNy45OTcwOSAyMS40NzkxIDYuODc2NDcgMjEuNDc3NCA2LjAxMzQ5IDIxLjQwNjlDNS4xNzYwNCAyMS4zMzg1IDQuNzc1NjQgMjEuMjE2NCA0LjUxMTUgMjEuMDgxOEMzLjgyNTUgMjAuNzMyMiAzLjI2Nzc1IDIwLjE3NDUgMi45MTgyMiAxOS40ODg1QzIuNzgzNjMgMTkuMjI0MyAyLjY2MTQ3IDE4LjgyMzkgMi41OTMwNSAxNy45ODY1QzIuNTIyNTQgMTcuMTIzNSAyLjUyMDg0IDE2LjAwMjkgMi41MjA4NCAxNC4zMzMzVjkuNjY2NjVDMi41MjA4NCA3Ljk5NzA2IDIuNTIyNTQgNi44NzY0NCAyLjU5MzA1IDYuMDEzNDZDMi42NjE0NyA1LjE3NjAxIDIuNzgzNjMgNC43NzU2MSAyLjkxODIyIDQuNTExNDdDMy4yNjc3NSAzLjgyNTQ2IDMuODI1NSAzLjI2NzcyIDQuNTExNSAyLjkxODE4QzQuNzc1NjQgMi43ODM2IDUuMTc2MDQgMi42NjE0NCA2LjAxMzQ5IDIuNTkzMDJDNi44NzY0NyAyLjUyMjUxIDcuOTk3MDkgMi41MjA4MSA5LjY2NjY4IDIuNTIwODFaIiBjbGlwLXJ1bGU9ImV2ZW5vZGQiIGZpbGwtcnVsZT0iZXZlbm9kZCIvPiYjeGE7PC9nPiYjeGE7PGRlZnM+JiN4YTs8Y2xpcFBhdGggaWQ9ImNsaXAwXzFfMiI+JiN4YTs8cmVjdCBmaWxsPSJ3aGl0ZSIgaGVpZ2h0PSIyNCIgd2lkdGg9IjI0Ii8+JiN4YTs8L2NsaXBQYXRoPiYjeGE7PC9kZWZzPiYjeGE7PC9zdmc+;fontColor=#212121;fontSize=14;fontFamily=VK Sans Display Regular;" vertex="1" parent="1">
          <mxGeometry x="61" y="290" width="24" height="24" as="geometry" />
        </mxCell>
        <mxCell id="3-X2qmHWbimKNn7KAHb6-155" value="Router" style="shape=image;verticalLabelPosition=bottom;labelBackgroundColor=none;verticalAlign=top;aspect=fixed;imageAspect=0;image=data:image/svg+xml,PHN2ZyB4bWxucz0iaHR0cDovL3d3dy53My5vcmcvMjAwMC9zdmciIGZpbGw9Im5vbmUiIHZpZXdCb3g9IjAgMCAzMCAzMCIgaGVpZ2h0PSIzMCIgd2lkdGg9IjMwIj4mI3hhOzxwYXRoIGZpbGw9IiNFMTg4RDAiIGQ9Ik0yLjMxNDI4IDE1QzIuMzE0MjggNy45OTM4NyA3Ljk5Mzg3IDIuMzE0MjggMTUgMi4zMTQyOEMyMi4wMDYxIDIuMzE0MjggMjcuNjg1NyA3Ljk5Mzg3IDI3LjY4NTcgMTVDMjcuNjg1NyAyMi4wMDYxIDIyLjAwNjEgMjcuNjg1NyAxNSAyNy42ODU3QzcuOTkzODcgMjcuNjg1NyAyLjMxNDI4IDIyLjAwNjEgMi4zMTQyOCAxNVpNMTUgMC4yNTcxNDFDNi44NTc3NCAwLjI1NzE0MSAwLjI1NzE0MSA2Ljg1Nzc0IDAuMjU3MTQxIDE1QzAuMjU3MTQxIDIzLjE0MjMgNi44NTc3NCAyOS43NDI5IDE1IDI5Ljc0MjlDMjMuMTQyMyAyOS43NDI5IDI5Ljc0MjkgMjMuMTQyMyAyOS43NDI5IDE1QzI5Ljc0MjkgNi44NTc3NCAyMy4xNDIzIDAuMjU3MTQxIDE1IDAuMjU3MTQxWk0xOC41MTczIDYuMzI2MjVDMTguODc0MyA2LjY2MTEgMTguODg4MSA3LjIxNzU2IDE4LjU0ODEgNy41NjkxNUMxOC4yMDggNy45MjA3MyAxNy42NDI4IDcuOTM0MzEgMTcuMjg1NyA3LjU5OTQ2TDE1Ljg5MjkgNi41MDE4M1YxNy45MzA0TDE1Ljg5MjggMTcuOTM5VjIzLjQ5ODJMMTcuMjg1NyAyMi40MDA1QzE3LjY0MjggMjIuMDY1NyAxOC4yMDggMjIuMDc5MyAxOC41NDggMjIuNDMwOUMxOC44ODgxIDIyLjc4MjQgMTguODc0MyAyMy4zMzg5IDE4LjUxNzMgMjMuNjczN0wxNS42MTU4IDI2LjE4NjFDMTUuMjcwOSAyNi41MDk0IDE0LjcyOTEgMjYuNTA5NCAxNC4zODQyIDI2LjE4NjFMMTEuNDgyOCAyMy42NzM3QzExLjEyNTcgMjMuMzM4OSAxMS4xMTE5IDIyLjc4MjQgMTEuNDUyIDIyLjQzMDlDMTEuNzkyIDIyLjA3OTMgMTIuMzU3MiAyMi4wNjU3IDEyLjcxNDMgMjIuNDAwNUwxNC4xMDcxIDIzLjQ5ODJWMTIuMDY5NkwxNC4xMDcyIDEyLjA2MDlWNi41MDE4M0wxMi43MTQzIDcuNTk5NDZDMTIuMzU3MiA3LjkzNDMxIDExLjc5MiA3LjkyMDczIDExLjQ1MiA3LjU2OTE1QzExLjExMTkgNy4yMTc1NiAxMS4xMjU3IDYuNjYxMSAxMS40ODI4IDYuMzI2MjVMMTQuMzg0MyAzLjgxMzk1QzE0LjcyOTEgMy40OTA1OSAxNS4yNzEgMy40OTA1OSAxNS42MTU4IDMuODEzOTVMMTguNTE3MyA2LjMyNjI1Wk05LjA5NzUyIDE4LjkxMzhDOS40NDkxMSAxOS4yNTM5IDEwLjAwNTYgMTkuMjQwMSAxMC4zNDA0IDE4Ljg4M0wxMi44NTI3IDE1Ljk4MTZDMTMuMTc2MSAxNS42MzY3IDEzLjE3NjEgMTUuMDk0OSAxMi44NTI3IDE0Ljc1TDEwLjM0MDQgMTEuODQ4NUMxMC4wMDU2IDExLjQ5MTQgOS40NDkxMSAxMS40Nzc3IDkuMDk3NTIgMTEuODE3N0M4Ljc0NTk0IDEyLjE1NzggOC43MzIzNiAxMi43MjMgOS4wNjcyMSAxMy4wODAxTDEwLjE2NDggMTQuNDcyOUg0LjQ1MDU0QzMuOTY1MDIgMTQuNDcyOSAzLjU3MTQyIDE0Ljg3MjcgMy41NzE0MiAxNS4zNjU4QzMuNTcxNDIgMTUuODU4OSAzLjk2NTAxIDE2LjI1ODcgNC40NTA1NCAxNi4yNTg3SDEwLjE2NDhMOS4wNjcyMSAxNy42NTE1QzguNzMyMzYgMTguMDA4NiA4Ljc0NTk0IDE4LjU3MzcgOS4wOTc1MiAxOC45MTM4Wk0xOS42NjM0IDExLjg0ODVDMTkuOTk4MiAxMS40OTE0IDIwLjU1NDcgMTEuNDc3NyAyMC45MDYzIDExLjgxNzdDMjEuMjU3OSAxMi4xNTc4IDIxLjI3MTUgMTIuNzIzIDIwLjkzNjYgMTMuMDhMMTkuODM5IDE0LjQ3MjlIMjUuNTUzM0MyNi4wMzg4IDE0LjQ3MjkgMjYuNDMyNCAxNC44NzI2IDI2LjQzMjQgMTUuMzY1OEMyNi40MzI0IDE1Ljg1ODkgMjYuMDM4OCAxNi4yNTg2IDI1LjU1MzMgMTYuMjU4NkgxOS44MzlMMjAuOTM2NiAxNy42NTE1QzIxLjI3MTUgMTguMDA4NiAyMS4yNTc5IDE4LjU3MzcgMjAuOTA2MyAxOC45MTM4QzIwLjU1NDcgMTkuMjUzOSAxOS45OTgyIDE5LjI0MDEgMTkuNjYzNCAxOC44ODNMMTcuMTUxMSAxNS45ODE1QzE2LjgyNzcgMTUuNjM2NyAxNi44Mjc3IDE1LjA5NDggMTcuMTUxMSAxNC43NUwxOS42NjM0IDExLjg0ODVaIiBjbGlwLXJ1bGU9ImV2ZW5vZGQiIGZpbGwtcnVsZT0iZXZlbm9kZCIvPiYjeGE7PC9zdmc+;fontColor=#212121;fontFamily=VK Sans Display Regular;fontSize=14;" vertex="1" parent="1">
          <mxGeometry x="51.75" y="180.5" width="41.5" height="41.5" as="geometry" />
        </mxCell>
        <mxCell id="3-X2qmHWbimKNn7KAHb6-146" value="Port" style="shape=image;verticalLabelPosition=bottom;labelBackgroundColor=none;verticalAlign=top;aspect=fixed;imageAspect=0;image=data:image/svg+xml,PHN2ZyB4bWxucz0iaHR0cDovL3d3dy53My5vcmcvMjAwMC9zdmciIGZpbGw9Im5vbmUiIHZpZXdCb3g9IjAgMCAyNCAyNCIgaGVpZ2h0PSIyNCIgd2lkdGg9IjI0Ij4mI3hhOzxwYXRoIGZpbGw9IiNFMTg4RDAiIGQ9Ik0wIDkuMzMzMzRDMCA2LjA2NjM2IDAgNC40MzI4OCAwLjYzNTc5NSAzLjE4NTA2QzEuMTk1MDYgMi4wODc0NSAyLjA4NzQ1IDEuMTk1MDYgMy4xODUwNiAwLjYzNTc5NUM0LjQzMjg4IDAgNi4wNjYzNiAwIDkuMzMzMzQgMEgxNEMxNy4yNjcgMCAxOC45MDA1IDAgMjAuMTQ4MyAwLjYzNTc5NUMyMS4yNDU5IDEuMTk1MDYgMjIuMTM4MyAyLjA4NzQ1IDIyLjY5NzYgMy4xODUwNkMyMy4zMzM0IDQuNDMyODggMjMuMzMzNCA2LjA2NjM2IDIzLjMzMzQgOS4zMzMzNFYxNEMyMy4zMzM0IDE3LjI2NyAyMy4zMzM0IDE4LjkwMDUgMjIuNjk3NiAyMC4xNDgzQzIyLjEzODMgMjEuMjQ1OSAyMS4yNDU5IDIyLjEzODMgMjAuMTQ4MyAyMi42OTc1QzE4LjkwMDUgMjMuMzMzMyAxNy4yNjcgMjMuMzMzMyAxNCAyMy4zMzMzSDkuMzMzMzRDNi4wNjYzNiAyMy4zMzMzIDQuNDMyODggMjMuMzMzMyAzLjE4NTA2IDIyLjY5NzVDMi4wODc0NSAyMi4xMzgzIDEuMTk1MDYgMjEuMjQ1OSAwLjYzNTc5NSAyMC4xNDgzQzAgMTguOTAwNSAwIDE3LjI2NyAwIDE0VjkuMzMzMzRaTTkuMzMzMzQgMi4xODc1SDE0QzE1LjY2OTYgMi4xODc1IDE2Ljc5MDMgMi4xODkyIDE3LjY1MzIgMi4yNTk3MUMxOC40OTA3IDIuMzI4MTMgMTguODkxMSAyLjQ1MDI5IDE5LjE1NTIgMi41ODQ4N0MxOS44NDEyIDIuOTM0NDEgMjAuMzk5IDMuNDkyMTUgMjAuNzQ4NSA0LjE3ODE2QzIwLjg4MzEgNC40NDIzIDIxLjAwNTIgNC44NDI3IDIxLjA3MzcgNS42ODAxNUMyMS4xNDQyIDYuNTQzMTMgMjEuMTQ1OSA3LjY2Mzc1IDIxLjE0NTkgOS4zMzMzNFYxNEMyMS4xNDU5IDE1LjY2OTYgMjEuMTQ0MiAxNi43OTAyIDIxLjA3MzcgMTcuNjUzMkMyMS4wMDUyIDE4LjQ5MDYgMjAuODgzMSAxOC44OTEgMjAuNzQ4NSAxOS4xNTUyQzIwLjM5OSAxOS44NDEyIDE5Ljg0MTIgMjAuMzk4OSAxOS4xNTUyIDIwLjc0ODVDMTguODkxMSAyMC44ODMxIDE4LjQ5MDcgMjEuMDA1MiAxNy42NTMyIDIxLjA3MzZDMTYuNzkwMyAyMS4xNDQxIDE1LjY2OTYgMjEuMTQ1OCAxNCAyMS4xNDU4SDkuMzMzMzRDNy42NjM3NSAyMS4xNDU4IDYuNTQzMTMgMjEuMTQ0MSA1LjY4MDE1IDIxLjA3MzZDNC44NDI3IDIxLjAwNTIgNC40NDIzIDIwLjg4MzEgNC4xNzgxNiAyMC43NDg1QzMuNDkyMTYgMjAuMzk4OSAyLjkzNDQxIDE5Ljg0MTIgMi41ODQ4OCAxOS4xNTUyQzIuNDUwMjkgMTguODkxIDIuMzI4MTMgMTguNDkwNiAyLjI1OTcxIDE3LjY1MzJDMi4xODkyIDE2Ljc5MDIgMi4xODc1IDE1LjY2OTYgMi4xODc1IDE0VjkuMzMzMzRDMi4xODc1IDcuNjYzNzUgMi4xODkyIDYuNTQzMTMgMi4yNTk3MSA1LjY4MDE1QzIuMzI4MTMgNC44NDI3IDIuNDUwMjkgNC40NDIzIDIuNTg0ODggNC4xNzgxNkMyLjkzNDQxIDMuNDkyMTUgMy40OTIxNiAyLjkzNDQxIDQuMTc4MTYgMi41ODQ4N0M0LjQ0MjMgMi40NTAyOSA0Ljg0MjcgMi4zMjgxMyA1LjY4MDE1IDIuMjU5NzFDNi41NDMxMyAyLjE4OTIgNy42NjM3NSAyLjE4NzUgOS4zMzMzNCAyLjE4NzVaIiBjbGlwLXJ1bGU9ImV2ZW5vZGQiIGZpbGwtcnVsZT0iZXZlbm9kZCIvPiYjeGE7PC9zdmc+;fontColor=#212121;fontSize=14;fontFamily=VK Sans Display Regular;" vertex="1" parent="1">
          <mxGeometry x="239" y="419.5" width="24" height="24" as="geometry" />
        </mxCell>
        <mxCell id="3-X2qmHWbimKNn7KAHb6-147" value="Port" style="shape=image;verticalLabelPosition=bottom;labelBackgroundColor=none;verticalAlign=top;aspect=fixed;imageAspect=0;image=data:image/svg+xml,PHN2ZyB4bWxucz0iaHR0cDovL3d3dy53My5vcmcvMjAwMC9zdmciIGZpbGw9Im5vbmUiIHZpZXdCb3g9IjAgMCAyNCAyNCIgaGVpZ2h0PSIyNCIgd2lkdGg9IjI0Ij4mI3hhOzxwYXRoIGZpbGw9IiM4N0Q2RTgiIGQ9Ik0wIDkuMzMzMzRDMCA2LjA2NjM2IDAgNC40MzI4OCAwLjYzNTc5NSAzLjE4NTA2QzEuMTk1MDYgMi4wODc0NSAyLjA4NzQ1IDEuMTk1MDYgMy4xODUwNiAwLjYzNTc5NUM0LjQzMjg4IDAgNi4wNjYzNiAwIDkuMzMzMzQgMEgxNEMxNy4yNjcgMCAxOC45MDA1IDAgMjAuMTQ4MyAwLjYzNTc5NUMyMS4yNDU5IDEuMTk1MDYgMjIuMTM4MyAyLjA4NzQ1IDIyLjY5NzYgMy4xODUwNkMyMy4zMzM0IDQuNDMyODggMjMuMzMzNCA2LjA2NjM2IDIzLjMzMzQgOS4zMzMzNFYxNEMyMy4zMzM0IDE3LjI2NyAyMy4zMzM0IDE4LjkwMDUgMjIuNjk3NiAyMC4xNDgzQzIyLjEzODMgMjEuMjQ1OSAyMS4yNDU5IDIyLjEzODMgMjAuMTQ4MyAyMi42OTc1QzE4LjkwMDUgMjMuMzMzMyAxNy4yNjcgMjMuMzMzMyAxNCAyMy4zMzMzSDkuMzMzMzRDNi4wNjYzNiAyMy4zMzMzIDQuNDMyODggMjMuMzMzMyAzLjE4NTA2IDIyLjY5NzVDMi4wODc0NSAyMi4xMzgzIDEuMTk1MDYgMjEuMjQ1OSAwLjYzNTc5NSAyMC4xNDgzQzAgMTguOTAwNSAwIDE3LjI2NyAwIDE0VjkuMzMzMzRaTTkuMzMzMzQgMi4xODc1SDE0QzE1LjY2OTYgMi4xODc1IDE2Ljc5MDMgMi4xODkyIDE3LjY1MzIgMi4yNTk3MUMxOC40OTA3IDIuMzI4MTMgMTguODkxMSAyLjQ1MDI5IDE5LjE1NTIgMi41ODQ4N0MxOS44NDEyIDIuOTM0NDEgMjAuMzk5IDMuNDkyMTUgMjAuNzQ4NSA0LjE3ODE2QzIwLjg4MzEgNC40NDIzIDIxLjAwNTIgNC44NDI3IDIxLjA3MzcgNS42ODAxNUMyMS4xNDQyIDYuNTQzMTMgMjEuMTQ1OSA3LjY2Mzc1IDIxLjE0NTkgOS4zMzMzNFYxNEMyMS4xNDU5IDE1LjY2OTYgMjEuMTQ0MiAxNi43OTAyIDIxLjA3MzcgMTcuNjUzMkMyMS4wMDUyIDE4LjQ5MDYgMjAuODgzMSAxOC44OTEgMjAuNzQ4NSAxOS4xNTUyQzIwLjM5OSAxOS44NDEyIDE5Ljg0MTIgMjAuMzk4OSAxOS4xNTUyIDIwLjc0ODVDMTguODkxMSAyMC44ODMxIDE4LjQ5MDcgMjEuMDA1MiAxNy42NTMyIDIxLjA3MzZDMTYuNzkwMyAyMS4xNDQxIDE1LjY2OTYgMjEuMTQ1OCAxNCAyMS4xNDU4SDkuMzMzMzRDNy42NjM3NSAyMS4xNDU4IDYuNTQzMTMgMjEuMTQ0MSA1LjY4MDE1IDIxLjA3MzZDNC44NDI3IDIxLjAwNTIgNC40NDIzIDIwLjg4MzEgNC4xNzgxNiAyMC43NDg1QzMuNDkyMTYgMjAuMzk4OSAyLjkzNDQxIDE5Ljg0MTIgMi41ODQ4OCAxOS4xNTUyQzIuNDUwMjkgMTguODkxIDIuMzI4MTMgMTguNDkwNiAyLjI1OTcxIDE3LjY1MzJDMi4xODkyIDE2Ljc5MDIgMi4xODc1IDE1LjY2OTYgMi4xODc1IDE0VjkuMzMzMzRDMi4xODc1IDcuNjYzNzUgMi4xODkyIDYuNTQzMTMgMi4yNTk3MSA1LjY4MDE1QzIuMzI4MTMgNC44NDI3IDIuNDUwMjkgNC40NDIzIDIuNTg0ODggNC4xNzgxNkMyLjkzNDQxIDMuNDkyMTUgMy40OTIxNiAyLjkzNDQxIDQuMTc4MTYgMi41ODQ4N0M0LjQ0MjMgMi40NTAyOSA0Ljg0MjcgMi4zMjgxMyA1LjY4MDE1IDIuMjU5NzFDNi41NDMxMyAyLjE4OTIgNy42NjM3NSAyLjE4NzUgOS4zMzMzNCAyLjE4NzVaIiBjbGlwLXJ1bGU9ImV2ZW5vZGQiIGZpbGwtcnVsZT0iZXZlbm9kZCIvPiYjeGE7PC9zdmc+;fontColor=#212121;fontFamily=VK Sans Display Regular;fontSize=14;" vertex="1" parent="1">
          <mxGeometry x="520" y="419" width="24" height="24" as="geometry" />
        </mxCell>
        <mxCell id="3-X2qmHWbimKNn7KAHb6-203" value="Router" style="shape=image;verticalLabelPosition=bottom;labelBackgroundColor=none;verticalAlign=top;aspect=fixed;imageAspect=0;image=data:image/svg+xml,PHN2ZyB4bWxucz0iaHR0cDovL3d3dy53My5vcmcvMjAwMC9zdmciIGZpbGw9Im5vbmUiIHZpZXdCb3g9IjAgMCAzMCAzMCIgaGVpZ2h0PSIzMCIgd2lkdGg9IjMwIj4mI3hhOzxwYXRoIGZpbGw9IiM4N0Q2RTgiIGQ9Ik0yLjMxNDI4IDE1QzIuMzE0MjggNy45OTM4NyA3Ljk5Mzg3IDIuMzE0MjggMTUgMi4zMTQyOEMyMi4wMDYxIDIuMzE0MjggMjcuNjg1NyA3Ljk5Mzg3IDI3LjY4NTcgMTVDMjcuNjg1NyAyMi4wMDYxIDIyLjAwNjEgMjcuNjg1NyAxNSAyNy42ODU3QzcuOTkzODcgMjcuNjg1NyAyLjMxNDI4IDIyLjAwNjEgMi4zMTQyOCAxNVpNMTUgMC4yNTcxNDFDNi44NTc3NCAwLjI1NzE0MSAwLjI1NzE0MSA2Ljg1Nzc0IDAuMjU3MTQxIDE1QzAuMjU3MTQxIDIzLjE0MjMgNi44NTc3NCAyOS43NDI5IDE1IDI5Ljc0MjlDMjMuMTQyMyAyOS43NDI5IDI5Ljc0MjkgMjMuMTQyMyAyOS43NDI5IDE1QzI5Ljc0MjkgNi44NTc3NCAyMy4xNDIzIDAuMjU3MTQxIDE1IDAuMjU3MTQxWk0xOC41MTczIDYuMzI2MjVDMTguODc0MyA2LjY2MTEgMTguODg4MSA3LjIxNzU2IDE4LjU0ODEgNy41NjkxNUMxOC4yMDggNy45MjA3MyAxNy42NDI4IDcuOTM0MzEgMTcuMjg1NyA3LjU5OTQ2TDE1Ljg5MjkgNi41MDE4M1YxNy45MzA0TDE1Ljg5MjggMTcuOTM5VjIzLjQ5ODJMMTcuMjg1NyAyMi40MDA1QzE3LjY0MjggMjIuMDY1NyAxOC4yMDggMjIuMDc5MyAxOC41NDggMjIuNDMwOUMxOC44ODgxIDIyLjc4MjQgMTguODc0MyAyMy4zMzg5IDE4LjUxNzMgMjMuNjczN0wxNS42MTU4IDI2LjE4NjFDMTUuMjcwOSAyNi41MDk0IDE0LjcyOTEgMjYuNTA5NCAxNC4zODQyIDI2LjE4NjFMMTEuNDgyOCAyMy42NzM3QzExLjEyNTcgMjMuMzM4OSAxMS4xMTE5IDIyLjc4MjQgMTEuNDUyIDIyLjQzMDlDMTEuNzkyIDIyLjA3OTMgMTIuMzU3MiAyMi4wNjU3IDEyLjcxNDMgMjIuNDAwNUwxNC4xMDcxIDIzLjQ5ODJWMTIuMDY5NkwxNC4xMDcyIDEyLjA2MDlWNi41MDE4M0wxMi43MTQzIDcuNTk5NDZDMTIuMzU3MiA3LjkzNDMxIDExLjc5MiA3LjkyMDczIDExLjQ1MiA3LjU2OTE1QzExLjExMTkgNy4yMTc1NiAxMS4xMjU3IDYuNjYxMSAxMS40ODI4IDYuMzI2MjVMMTQuMzg0MyAzLjgxMzk1QzE0LjcyOTEgMy40OTA1OSAxNS4yNzEgMy40OTA1OSAxNS42MTU4IDMuODEzOTVMMTguNTE3MyA2LjMyNjI1Wk05LjA5NzUyIDE4LjkxMzhDOS40NDkxMSAxOS4yNTM5IDEwLjAwNTYgMTkuMjQwMSAxMC4zNDA0IDE4Ljg4M0wxMi44NTI3IDE1Ljk4MTZDMTMuMTc2MSAxNS42MzY3IDEzLjE3NjEgMTUuMDk0OSAxMi44NTI3IDE0Ljc1TDEwLjM0MDQgMTEuODQ4NUMxMC4wMDU2IDExLjQ5MTQgOS40NDkxMSAxMS40Nzc3IDkuMDk3NTIgMTEuODE3N0M4Ljc0NTk0IDEyLjE1NzggOC43MzIzNiAxMi43MjMgOS4wNjcyMSAxMy4wODAxTDEwLjE2NDggMTQuNDcyOUg0LjQ1MDU0QzMuOTY1MDIgMTQuNDcyOSAzLjU3MTQyIDE0Ljg3MjcgMy41NzE0MiAxNS4zNjU4QzMuNTcxNDIgMTUuODU4OSAzLjk2NTAxIDE2LjI1ODcgNC40NTA1NCAxNi4yNTg3SDEwLjE2NDhMOS4wNjcyMSAxNy42NTE1QzguNzMyMzYgMTguMDA4NiA4Ljc0NTk0IDE4LjU3MzcgOS4wOTc1MiAxOC45MTM4Wk0xOS42NjM0IDExLjg0ODVDMTkuOTk4MiAxMS40OTE0IDIwLjU1NDcgMTEuNDc3NyAyMC45MDYzIDExLjgxNzdDMjEuMjU3OSAxMi4xNTc4IDIxLjI3MTUgMTIuNzIzIDIwLjkzNjYgMTMuMDhMMTkuODM5IDE0LjQ3MjlIMjUuNTUzM0MyNi4wMzg4IDE0LjQ3MjkgMjYuNDMyNCAxNC44NzI2IDI2LjQzMjQgMTUuMzY1OEMyNi40MzI0IDE1Ljg1ODkgMjYuMDM4OCAxNi4yNTg2IDI1LjU1MzMgMTYuMjU4NkgxOS44MzlMMjAuOTM2NiAxNy42NTE1QzIxLjI3MTUgMTguMDA4NiAyMS4yNTc5IDE4LjU3MzcgMjAuOTA2MyAxOC45MTM4QzIwLjU1NDcgMTkuMjUzOSAxOS45OTgyIDE5LjI0MDEgMTkuNjYzNCAxOC44ODNMMTcuMTUxMSAxNS45ODE1QzE2LjgyNzcgMTUuNjM2NyAxNi44Mjc3IDE1LjA5NDggMTcuMTUxMSAxNC43NUwxOS42NjM0IDExLjg0ODVaIiBjbGlwLXJ1bGU9ImV2ZW5vZGQiIGZpbGwtcnVsZT0iZXZlbm9kZCIvPiYjeGE7PC9zdmc+;fontColor=#212121;fontFamily=VK Sans Display Regular;fontSize=14;" vertex="1" parent="1">
          <mxGeometry x="706" y="180.5" width="42" height="42" as="geometry" />
        </mxCell>
        <mxCell id="3-X2qmHWbimKNn7KAHb6-202" value="" style="shape=image;verticalLabelPosition=bottom;labelBackgroundColor=default;verticalAlign=top;aspect=fixed;imageAspect=0;image=data:image/svg+xml,PHN2ZyB4bWxucz0iaHR0cDovL3d3dy53My5vcmcvMjAwMC9zdmciIGZpbGw9Im5vbmUiIHZpZXdCb3g9IjAgMCAyNSAyNSIgaGVpZ2h0PSIyNSIgd2lkdGg9IjI1Ij4mI3hhOzxwYXRoIGZpbGw9IiM4N0Q2RTgiIGQ9Ik0wIDExLjA4MzNDMCA1Ljg1ODYgLTEuMTkyMDllLTA3IDMuMjQ2MjMgMS42MjMxMSAxLjYyMzExQzMuMjQ2MjMgLTEuMTkyMDllLTA3IDUuODU4NiAwIDExLjA4MzMgMEMxNi4zMDggMCAxOC45MjA0IC0xLjE5MjA5ZS0wNyAyMC41NDM1IDEuNjIzMTFDMjIuMTY2NiAzLjI0NjIzIDIyLjE2NjYgNS44NTg2IDIyLjE2NjYgMTEuMDgzM0MyMi4xNjY2IDEyLjI0NTkgMjIuMTQzNSAxMy41NjA5IDIyLjExNDEgMTQuNjIzMUMyMi4wOTkyIDE1LjE1OTIgMjEuNjU4OSAxNS41ODMzIDIxLjEyMjYgMTUuNTgzM0MyMC41NTY2IDE1LjU4MzMgMjAuMDk4MiAxNS4xMTI1IDIwLjA5NTQgMTQuNTQ2NEMyMC4wOTQ0IDE0LjMzODQgMjAuMDkyNSAxNC4xMjE5IDIwLjA5MDYgMTMuOTA2M0MyMC4wODczIDEzLjUyMjUgMjAuMDg0IDEzLjE0MTYgMjAuMDg1NiAxMi44MTY3QzIwLjA4NzUgMTIuNDMzNiAxOS43NzY5IDEyLjEyMjQgMTkuMzkzOSAxMi4xMjI0SDIuNzcyNzNDMi4zODk2OCAxMi4xMjI0IDIuMDc5MTEgMTIuNDMzNiAyLjA4MTAyIDEyLjgxNjdDMi4wODk3NiAxNC41Njc2IDIuMTI0NTYgMTUuODYxMyAyLjI2MjQ4IDE2Ljg4NzFDMi40MzQzOSAxOC4xNjU3IDIuNzMxNDggMTguNzEzIDMuMDkyNTcgMTkuMDc0QzMuNDUzNjUgMTkuNDM1MSA0LjAwMDg5IDE5LjczMjIgNS4yNzk1MiAxOS45MDQxQzUuNTMwOTkgMTkuOTM3OSA1Ljc5ODU1IDE5Ljk2NTYgNi4wODQ5OSAxOS45ODgxQzYuNjQxNzUgMjAuMDMxOSA3LjA4MzM0IDIwLjQ4NjQgNy4wODMzNCAyMS4wNDQ5QzcuMDgzMzQgMjEuNjM0NCA2LjU5Mjc0IDIyLjEwOTcgNi4wMDQ4NCAyMi4wNjU5QzMuOTQ0ODcgMjEuOTEyMSAyLjYwMzUyIDIxLjUyMzkgMS42MjMxMSAyMC41NDM1Qy0xLjE5MjA5ZS0wNyAxOC45MjA0IDAgMTYuMzA4IDAgMTEuMDgzM1pNMjAuMDg1NiA5LjM0OTk0QzIwLjA4NzUgOS43MzI5NCAxOS43NzY5IDEwLjA0NDIgMTkuMzkzOSAxMC4wNDQySDIuNzcyNzNDMi4zODk2OCAxMC4wNDQyIDIuMDc5MTEgOS43MzI5NCAyLjA4MTAyIDkuMzQ5OTRDMi4wODk3NiA3LjU5ODk3IDIuMTI0NTYgNi4zMDUzNSAyLjI2MjQ4IDUuMjc5NTJDMi40MzQzOSA0LjAwMDg5IDIuNzMxNDggMy40NTM2NSAzLjA5MjU3IDMuMDkyNTdDMy40NTM2NSAyLjczMTQ4IDQuMDAwODkgMi40MzQzOSA1LjI3OTUyIDIuMjYyNDhDNi42MTc5MyAyLjA4MjU0IDguNDEyMjIgMi4wNzgxMiAxMS4wODMzIDIuMDc4MTJDMTMuNzU0NCAyLjA3ODEyIDE1LjU0ODcgMi4wODI1NCAxNi44ODcxIDIuMjYyNDhDMTguMTY1NyAyLjQzNDM5IDE4LjcxMyAyLjczMTQ4IDE5LjA3NCAzLjA5MjU3QzE5LjQzNTEgMy40NTM2NSAxOS43MzIyIDQuMDAwODkgMTkuOTA0MSA1LjI3OTUyQzIwLjA0MjEgNi4zMDUzNSAyMC4wNzY5IDcuNTk4OTcgMjAuMDg1NiA5LjM0OTk0Wk0xMi4yMDczIDIxLjc0MkwxMy45OTc1IDE3LjUyNjJDMTQuMDU1OCAxNy4zOTQ5IDE0LjE1MSAxNy4yMzM4IDE0LjMxNTYgMTcuMTMyOUMxNC40NjY1IDE3LjAzODQgMTQuNjM0NiAxNy4wMDk2IDE0Ljc4NjUgMTcuMDA5NkMxNC45MjIxIDE3LjAwOTYgMTUuMDY3MyAxNy4wMzQzIDE1LjIwMjcgMTcuMTA3QzE1LjMzOTIgMTcuMTgwMiAxNS40NDI1IDE3LjI4OTkgMTUuNTEwNyAxNy40MjE0QzE1LjY1MzIgMTcuNjc4NiAxNS42MzQ0IDE3Ljk1NDMgMTUuNTI0MSAxOC4xOTYzTDEzLjAwNiAyMy45NzI1QzEyLjk0MTcgMjQuMTE5NCAxMi44NDU0IDI0LjI1MzggMTIuNzA5NSAyNC4zNTU3TDEyLjcwNDUgMjQuMzU5NEMxMi41NTI5IDI0LjQ2OTcgMTIuMzc5NSAyNC41MDg5IDEyLjIxNTggMjQuNTA4OUMxMi4wNDc5IDI0LjUwODkgMTEuODgxNCAyNC40NjQyIDExLjczNSAyNC4zNjE0QzExLjU5MTkgMjQuMjYwOSAxMS40OTQxIDI0LjEyMzQgMTEuNDI4MyAyMy45Nzg1TDExLjQyNTcgMjMuOTcyOUw4LjkyODAzIDE4LjI2MTNDOC44MjUxOCAxOC4wMTE1IDguNzc1NDEgMTcuNzEyMyA4LjkxNTQ2IDE3LjQzMjFDOS4wNjk5NCAxNy4xMjMyIDkuMzY2NjQgMTcuMDA5NiA5LjY1MzY0IDE3LjAwOTZDOS44MTYzNCAxNy4wMDk2IDkuOTg0NzQgMTcuMDQ2MSAxMC4xMzU2IDE3LjE0MzdDMTAuMjg3OCAxNy4yNDE5IDEwLjM5MDYgMTcuMzgxNyAxMC40NTQ3IDE3LjUzNDVMMTIuMjA3MyAyMS43NDJaTTE4LjM3MjggMjEuMjkzNFYyMy42NDA3QzE4LjM3MjggMjMuODczNyAxOC4yODg2IDI0LjA4ODQgMTguMTIwNCAyNC4yNTY2QzE3Ljk1MjIgMjQuNDI0OCAxNy43Mzc2IDI0LjUwODkgMTcuNTA0NSAyNC41MDg5QzE3LjI3MTUgMjQuNTA4OSAxNy4wNTY4IDI0LjQyNDggMTYuODg4NiAyNC4yNTY2QzE2LjcyMDQgMjQuMDg4NCAxNi42MzYzIDIzLjg3MzcgMTYuNjM2MyAyMy42NDA3VjE3Ljg3NzlDMTYuNjM2MyAxNy42NDc0IDE2LjcxNTMgMTcuNDI2MyAxNi44OTM3IDE3LjI1NjhDMTcuMDYxMiAxNy4wOTIxIDE3LjI3MzggMTcuMDA5NiAxNy41MDQ1IDE3LjAwOTZDMTcuODQxIDE3LjAwOTYgMTguMTA2IDE3LjE4MyAxOC4yNjU2IDE3LjQ2MjRMMTguMjcxNSAxNy40NzI4TDIwLjQxNzUgMjEuNzcxNkwyMi41MDc3IDE3LjQ3NDdMMjIuNTE0NyAxNy40NjI0QzIyLjY3NDQgMTcuMTgzIDIyLjkzOTQgMTcuMDA5NiAyMy4yNzU4IDE3LjAwOTZDMjMuNTA2NSAxNy4wMDk2IDIzLjcxOTIgMTcuMDkyMSAyMy44ODY2IDE3LjI1NjlDMjQuMDY1MSAxNy40MjYzIDI0LjE0NDEgMTcuNjQ3NCAyNC4xNDQxIDE3Ljg3NzlWMjMuNjQwN0MyNC4xNDQxIDIzLjg4MDQgMjQuMDUyMSAyNC4wOTYxIDIzLjg3ODQgMjQuMjYxNEMyMy43MTUxIDI0LjQyMjMgMjMuNTA2OSAyNC41MDg5IDIzLjI3NTggMjQuNTA4OUMyMy4wNDI4IDI0LjUwODkgMjIuODI4MSAyNC40MjQ4IDIyLjY1OTkgMjQuMjU2NkMyMi40OTE3IDI0LjA4ODQgMjIuNDA3NiAyMy44NzM3IDIyLjQwNzYgMjMuNjQwN1YyMS4yNDE4TDIxLjE0MzggMjMuODE3NkwyMS4xMjk1IDIzLjgzOTVDMjAuOTY0NSAyNC4wOTE4IDIwLjcxMDQgMjQuMjUzNSAyMC4zOTAyIDI0LjI1MzVDMjAuMjI3NiAyNC4yNTM1IDIwLjA2MzcgMjQuMjE0NSAxOS45MTY3IDI0LjExOTVDMTkuNzcxNiAyNC4wMjU4IDE5LjY2OTMgMjMuODk0OCAxOS41OTk4IDIzLjc1MjFMMTguMzcyOCAyMS4yOTM0WiIgY2xpcC1ydWxlPSJldmVub2RkIiBmaWxsLXJ1bGU9ImV2ZW5vZGQiLz4mI3hhOzwvc3ZnPg==;fontColor=#212121;fontFamily=VK Sans Display Regular;fontSize=14;" vertex="1" parent="1">
          <mxGeometry x="707.5" y="541.5" width="39" height="39" as="geometry" />
        </mxCell>
        <mxCell id="3-X2qmHWbimKNn7KAHb6-218" value="Floating IP" style="shape=image;verticalLabelPosition=bottom;labelBackgroundColor=none;verticalAlign=top;aspect=fixed;imageAspect=0;image=data:image/svg+xml,PHN2ZyB4bWxucz0iaHR0cDovL3d3dy53My5vcmcvMjAwMC9zdmciIGZpbGw9Im5vbmUiIHZpZXdCb3g9IjAgMCAyNCAyNCIgaGVpZ2h0PSIyNCIgd2lkdGg9IjI0Ij4mI3hhOzxnIGNsaXAtcGF0aD0idXJsKCNjbGlwMF8xXzIpIj4mI3hhOzxwYXRoIGZpbGw9IiNFMTg4RDAiIGQ9Ik03LjExNDYzIDYuODk1ODFDNi41MTA1NyA2Ljg5NTgxIDYuMDIwODggNy4zODU1IDYuMDIwODggNy45ODk1NlYxNi4wMTA0QzYuMDIwODggMTYuNjE0NSA2LjUxMDU3IDE3LjEwNDEgNy4xMTQ2MyAxNy4xMDQxQzcuNzE4NjkgMTcuMTA0MSA4LjIwODM4IDE2LjYxNDUgOC4yMDgzOCAxNi4wMTA0VjcuOTg5NTZDOC4yMDgzOCA3LjM4NTUgNy43MTg2OSA2Ljg5NTgxIDcuMTE0NjMgNi44OTU4MVoiLz4mI3hhOzxwYXRoIGZpbGw9IiNFMTg4RDAiIGQ9Ik0xMi4wNzQxIDYuODk1ODFDMTEuMjY4NyA2Ljg5NTgxIDEwLjYxNTggNy41NDg3MyAxMC42MTU4IDguMzU0MTVWMTYuMDEwNEMxMC42MTU4IDE2LjYxNDUgMTEuMTA1NSAxNy4xMDQxIDExLjcwOTUgMTcuMTA0MUMxMi4zMTM2IDE3LjEwNDEgMTIuODAzMyAxNi42MTQ1IDEyLjgwMzMgMTYuMDEwNFYxMy43NUgxNC45MTc5QzE1LjQ2MjMgMTMuNzUgMTUuOTU4MSAxMy42NjczIDE2LjQwNTQgMTMuNTAyMUMxNi44NTI2IDEzLjMyNzEgMTcuMjM2NiAxMy4wODg5IDE3LjU1NzQgMTIuNzg3NUMxNy44NzgzIDEyLjQ3NjQgMTguMTI2MiAxMi4xMTE4IDE4LjMwMTIgMTEuNjkzN0MxOC40NzYyIDExLjI3NTcgMTguNTYzNyAxMC44MTg3IDE4LjU2MzcgMTAuMzIyOUMxOC41NjM3IDkuODI3MDYgMTguNDc2MiA5LjM3MDEyIDE4LjMwMTIgOC45NTIwNkMxOC4xMjYyIDguNTM0MDEgMTcuODc4MyA4LjE3NDI5IDE3LjU1NzQgNy44NzI5QzE3LjIzNjYgNy41NjE3OSAxNi44NTI2IDcuMzIzNTkgMTYuNDA1NCA3LjE1ODMxQzE1Ljk1ODEgNi45ODMzMSAxNS40NjIzIDYuODk1ODEgMTQuOTE3OSA2Ljg5NTgxSDEyLjA3NDFaTTE1Ljg5NDkgMTEuMzI5MUMxNS42MzI0IDExLjU4MTkgMTUuMjgyNCAxMS43MDgzIDE0Ljg0NDkgMTEuNzA4M0gxMi44MDMzVjguOTM3NDhIMTQuODQ0OUMxNS4yODI0IDguOTM3NDggMTUuNjMyNCA5LjA2ODczIDE1Ljg5NDkgOS4zMzEyM0MxNi4xNjcyIDkuNTg0MDEgMTYuMzAzMyA5LjkxNDU2IDE2LjMwMzMgMTAuMzIyOUMxNi4zMDMzIDEwLjczMTIgMTYuMTY3MiAxMS4wNjY2IDE1Ljg5NDkgMTEuMzI5MVoiIGNsaXAtcnVsZT0iZXZlbm9kZCIgZmlsbC1ydWxlPSJldmVub2RkIi8+JiN4YTs8cGF0aCBmaWxsPSIjRTE4OEQwIiBkPSJNMC4zMzMzNDQgOS42NjY2NUMwLjMzMzM0NCA2LjM5OTY3IDAuMzMzMzQ0IDQuNzY2MTkgMC45NjkxMzkgMy41MTgzN0MxLjUyODQgMi40MjA3NiAyLjQyMDc5IDEuNTI4MzcgMy41MTg0IDAuOTY5MTA4QzQuNzY2MjIgMC4zMzMzMTMgNi4zOTk3IDAuMzMzMzEzIDkuNjY2NjggMC4zMzMzMTNIMTQuMzMzM0MxNy42MDAzIDAuMzMzMzEzIDE5LjIzMzggMC4zMzMzMTMgMjAuNDgxNiAwLjk2OTEwOEMyMS41NzkyIDEuNTI4MzcgMjIuNDcxNiAyLjQyMDc2IDIzLjAzMDkgMy41MTgzN0MyMy42NjY3IDQuNzY2MTkgMjMuNjY2NyA2LjM5OTY3IDIzLjY2NjcgOS42NjY2NVYxNC4zMzMzQzIzLjY2NjcgMTcuNjAwMyAyMy42NjY3IDE5LjIzMzggMjMuMDMwOSAyMC40ODE2QzIyLjQ3MTYgMjEuNTc5MiAyMS41NzkyIDIyLjQ3MTYgMjAuNDgxNiAyMy4wMzA4QzE5LjIzMzggMjMuNjY2NiAxNy42MDAzIDIzLjY2NjYgMTQuMzMzMyAyMy42NjY2SDkuNjY2NjhDNi4zOTk3IDIzLjY2NjYgNC43NjYyMiAyMy42NjY2IDMuNTE4NCAyMy4wMzA4QzIuNDIwNzkgMjIuNDcxNiAxLjUyODQgMjEuNTc5MiAwLjk2OTEzOSAyMC40ODE2QzAuMzMzMzQ0IDE5LjIzMzggMC4zMzMzNDQgMTcuNjAwMyAwLjMzMzM0NCAxNC4zMzMzVjkuNjY2NjVaTTkuNjY2NjggMi41MjA4MUgxNC4zMzMzQzE2LjAwMjkgMi41MjA4MSAxNy4xMjM2IDIuNTIyNTEgMTcuOTg2NSAyLjU5MzAyQzE4LjgyNCAyLjY2MTQ0IDE5LjIyNDQgMi43ODM2IDE5LjQ4ODUgMi45MTgxOEMyMC4xNzQ1IDMuMjY3NzIgMjAuNzMyMyAzLjgyNTQ2IDIxLjA4MTggNC41MTE0N0MyMS4yMTY0IDQuNzc1NjEgMjEuMzM4NSA1LjE3NjAxIDIxLjQwNyA2LjAxMzQ2QzIxLjQ3NzUgNi44NzY0NCAyMS40NzkyIDcuOTk3MDYgMjEuNDc5MiA5LjY2NjY1VjE0LjMzMzNDMjEuNDc5MiAxNi4wMDI5IDIxLjQ3NzUgMTcuMTIzNSAyMS40MDcgMTcuOTg2NUMyMS4zMzg1IDE4LjgyMzkgMjEuMjE2NCAxOS4yMjQzIDIxLjA4MTggMTkuNDg4NUMyMC43MzIzIDIwLjE3NDUgMjAuMTc0NSAyMC43MzIyIDE5LjQ4ODUgMjEuMDgxOEMxOS4yMjQ0IDIxLjIxNjQgMTguODI0IDIxLjMzODUgMTcuOTg2NSAyMS40MDY5QzE3LjEyMzYgMjEuNDc3NCAxNi4wMDI5IDIxLjQ3OTEgMTQuMzMzMyAyMS40NzkxSDkuNjY2NjhDNy45OTcwOSAyMS40NzkxIDYuODc2NDcgMjEuNDc3NCA2LjAxMzQ5IDIxLjQwNjlDNS4xNzYwNCAyMS4zMzg1IDQuNzc1NjQgMjEuMjE2NCA0LjUxMTUgMjEuMDgxOEMzLjgyNTUgMjAuNzMyMiAzLjI2Nzc1IDIwLjE3NDUgMi45MTgyMiAxOS40ODg1QzIuNzgzNjMgMTkuMjI0MyAyLjY2MTQ3IDE4LjgyMzkgMi41OTMwNSAxNy45ODY1QzIuNTIyNTQgMTcuMTIzNSAyLjUyMDg0IDE2LjAwMjkgMi41MjA4NCAxNC4zMzMzVjkuNjY2NjVDMi41MjA4NCA3Ljk5NzA2IDIuNTIyNTQgNi44NzY0NCAyLjU5MzA1IDYuMDEzNDZDMi42NjE0NyA1LjE3NjAxIDIuNzgzNjMgNC43NzU2MSAyLjkxODIyIDQuNTExNDdDMy4yNjc3NSAzLjgyNTQ2IDMuODI1NSAzLjI2NzcyIDQuNTExNSAyLjkxODE4QzQuNzc1NjQgMi43ODM2IDUuMTc2MDQgMi42NjE0NCA2LjAxMzQ5IDIuNTkzMDJDNi44NzY0NyAyLjUyMjUxIDcuOTk3MDkgMi41MjA4MSA5LjY2NjY4IDIuNTIwODFaIiBjbGlwLXJ1bGU9ImV2ZW5vZGQiIGZpbGwtcnVsZT0iZXZlbm9kZCIvPiYjeGE7PC9nPiYjeGE7PGRlZnM+JiN4YTs8Y2xpcFBhdGggaWQ9ImNsaXAwXzFfMiI+JiN4YTs8cmVjdCBmaWxsPSJ3aGl0ZSIgaGVpZ2h0PSIyNCIgd2lkdGg9IjI0Ii8+JiN4YTs8L2NsaXBQYXRoPiYjeGE7PC9kZWZzPiYjeGE7PC9zdmc+;fontColor=#212121;fontSize=14;fontFamily=VK Sans Display Regular;" vertex="1" parent="1">
          <mxGeometry x="374" y="290" width="24" height="24" as="geometry" />
        </mxCell>
        <mxCell id="3-X2qmHWbimKNn7KAHb6-220" value="external&#xa;network" style="shape=image;verticalLabelPosition=bottom;labelBackgroundColor=none;verticalAlign=top;aspect=fixed;imageAspect=0;image=data:image/svg+xml,PHN2ZyB4bWxucz0iaHR0cDovL3d3dy53My5vcmcvMjAwMC9zdmciIGZpbGw9Im5vbmUiIHZpZXdCb3g9IjAgMCAyMyAyMyIgaGVpZ2h0PSIyMyIgd2lkdGg9IjIzIj4mI3hhOzxwYXRoIGZpbGw9IiNFMTg4RDAiIGQ9Ik0yMi4xNjY2IDQuMTU2MjVDMjIuMTY2NiA2LjQ1MTY4IDIwLjMwNTggOC4zMTI1IDE4LjAxMDQgOC4zMTI1QzE3LjQ1NDIgOC4zMTI1IDE2LjkyMzUgOC4yMDMyNSAxNi40Mzg3IDguMDA1MDVDMTYuMTM1IDcuODgwOSAxNS43NzY3IDcuOTMyNDIgMTUuNTU4IDguMTc2OTlMMTMuMzY2NCAxMC42Mjc5QzEzLjEzMTMgMTAuODkwOCAxMy4xMzEzIDExLjI4ODMgMTMuMzY2NCAxMS41NTEzTDE1LjU0OTMgMTMuOTkzMUMxNS43NjgzIDE0LjIzODIgMTYuMTI3NCAxNC4yODk1IDE2LjQzMTUgMTQuMTY0NUMxNi45MTgzIDEzLjk2NDUgMTcuNDUxNCAxMy44NTQxIDE4LjAxMDQgMTMuODU0MUMyMC4zMDU4IDEzLjg1NDEgMjIuMTY2NiAxNS43MTQ5IDIyLjE2NjYgMTguMDEwNEMyMi4xNjY2IDIwLjMwNTggMjAuMzA1OCAyMi4xNjY2IDE4LjAxMDQgMjIuMTY2NkMxNS43MTQ5IDIyLjE2NjYgMTMuODU0MSAyMC4zMDU4IDEzLjg1NDEgMTguMDEwNEMxMy44NTQxIDE3LjQxMDkgMTMuOTgxMSAxNi44NDEgMTQuMjA5NSAxNi4zMjYyQzE0LjMzMjggMTYuMDQ4MyAxNC4zMDY4IDE1LjcxODMgMTQuMTAzOSAxNS40OTE5TDExLjI4OTggMTIuMzUyN0MxMS4xNTg0IDEyLjIwNjEgMTAuOTcwOCAxMi4xMjI0IDEwLjc3NCAxMi4xMjI0SDguNzE4NTVDOC40MDI0OCAxMi4xMjI0IDguMTMyMTEgMTIuMzM5IDguMDE0MjUgMTIuNjMyM0M3LjQwMDA3IDE0LjE2MDYgNS45MDQxNyAxNS4yMzk1IDQuMTU2MjUgMTUuMjM5NUMxLjg2MDgxIDE1LjIzOTUgMCAxMy4zNzg3IDAgMTEuMDgzM0MwIDguNzg3OSAxLjg2MDgxIDYuOTI3MDggNC4xNTYyNSA2LjkyNzA4QzUuOTA0MTcgNi45MjcwOCA3LjQwMDA4IDguMDA2MDcgOC4wMTQyNSA5LjUzNDM0QzguMTMyMTEgOS44Mjc2NCA4LjQwMjQ4IDEwLjA0NDIgOC43MTg1NSAxMC4wNDQySDEwLjc3NDdDMTAuOTcxMSAxMC4wNDQyIDExLjE1ODMgOS45NjA4NCAxMS4yODk3IDkuODE0ODRMMTQuMTA2NSA2LjY4MzQ5QzE0LjMxMDUgNi40NTY3MyAxNC4zMzY2IDYuMTI1NDMgMTQuMjEyNCA1Ljg0Njg1QzEzLjk4MjEgNS4zMzAzNiAxMy44NTQxIDQuNzU4MjUgMTMuODU0MSA0LjE1NjI1QzEzLjg1NDEgMS44NjA4MSAxNS43MTQ5IDAgMTguMDEwNCAwQzIwLjMwNTggMCAyMi4xNjY2IDEuODYwODEgMjIuMTY2NiA0LjE1NjI1Wk0yMC4wODg1IDQuMTU2MjVDMjAuMDg4NSA1LjMwMzk2IDE5LjE1ODEgNi4yMzQzNyAxOC4wMTA0IDYuMjM0MzdDMTYuODYyNyA2LjIzNDM3IDE1LjkzMjIgNS4zMDM5NiAxNS45MzIyIDQuMTU2MjVDMTUuOTMyMiAzLjAwODUzIDE2Ljg2MjcgMi4wNzgxMiAxOC4wMTA0IDIuMDc4MTJDMTkuMTU4MSAyLjA3ODEyIDIwLjA4ODUgMy4wMDg1MyAyMC4wODg1IDQuMTU2MjVaTTYuMjM0MzcgMTEuMDgzM0M2LjIzNDM3IDEyLjIzMSA1LjMwMzk2IDEzLjE2MTQgNC4xNTYyNSAxMy4xNjE0QzMuMDA4NTMgMTMuMTYxNCAyLjA3ODEyIDEyLjIzMSAyLjA3ODEyIDExLjA4MzNDMi4wNzgxMiA5LjkzNTY0IDMuMDA4NTMgOS4wMDUyIDQuMTU2MjUgOS4wMDUyQzUuMzAzOTYgOS4wMDUyIDYuMjM0MzcgOS45MzU2NCA2LjIzNDM3IDExLjA4MzNaTTE4LjAxMDQgMjAuMDg4NUMxOS4xNTgxIDIwLjA4ODUgMjAuMDg4NSAxOS4xNTgxIDIwLjA4ODUgMTguMDEwNEMyMC4wODg1IDE2Ljg2MjcgMTkuMTU4MSAxNS45MzIyIDE4LjAxMDQgMTUuOTMyMkMxNi44NjI3IDE1LjkzMjIgMTUuOTMyMiAxNi44NjI3IDE1LjkzMjIgMTguMDEwNEMxNS45MzIyIDE5LjE1ODEgMTYuODYyNyAyMC4wODg1IDE4LjAxMDQgMjAuMDg4NVoiIGNsaXAtcnVsZT0iZXZlbm9kZCIgZmlsbC1ydWxlPSJldmVub2RkIi8+JiN4YTs8L3N2Zz4=;fontColor=#212121;fontFamily=VK Sans Display Regular;fontSize=14;" vertex="1" parent="1">
          <mxGeometry x="-32" y="190" width="23" height="23" as="geometry" />
        </mxCell>
        <mxCell id="133" value="" style="endArrow=none;html=1;fontFamily=VK Sans Display Regular;fontColor=#212121;rounded=0;strokeColor=#7C8A9A;endFill=0;strokeWidth=2;arcSize=8;backgroundOutline=0;fontSize=14;" parent="1" source="3-X2qmHWbimKNn7KAHb6-155" target="3-X2qmHWbimKNn7KAHb6-220" edge="1">
          <mxGeometry width="50" height="50" relative="1" as="geometry">
            <mxPoint x="50" y="115" as="sourcePoint" />
            <mxPoint x="-6.000000000000227" y="201.25" as="targetPoint" />
          </mxGeometry>
        </mxCell>
        <mxCell id="3-X2qmHWbimKNn7KAHb6-200" value="Floating IP" style="shape=image;verticalLabelPosition=bottom;labelBackgroundColor=none;verticalAlign=top;aspect=fixed;imageAspect=0;image=data:image/svg+xml,PHN2ZyB4bWxucz0iaHR0cDovL3d3dy53My5vcmcvMjAwMC9zdmciIGZpbGw9Im5vbmUiIHZpZXdCb3g9IjAgMCAyNCAyNCIgaGVpZ2h0PSIyNCIgd2lkdGg9IjI0Ij4mI3hhOzxnIGNsaXAtcGF0aD0idXJsKCNjbGlwMF8xXzIpIj4mI3hhOzxwYXRoIGZpbGw9IiNFMTg4RDAiIGQ9Ik03LjExNDYzIDYuODk1ODFDNi41MTA1NyA2Ljg5NTgxIDYuMDIwODggNy4zODU1IDYuMDIwODggNy45ODk1NlYxNi4wMTA0QzYuMDIwODggMTYuNjE0NSA2LjUxMDU3IDE3LjEwNDEgNy4xMTQ2MyAxNy4xMDQxQzcuNzE4NjkgMTcuMTA0MSA4LjIwODM4IDE2LjYxNDUgOC4yMDgzOCAxNi4wMTA0VjcuOTg5NTZDOC4yMDgzOCA3LjM4NTUgNy43MTg2OSA2Ljg5NTgxIDcuMTE0NjMgNi44OTU4MVoiLz4mI3hhOzxwYXRoIGZpbGw9IiNFMTg4RDAiIGQ9Ik0xMi4wNzQxIDYuODk1ODFDMTEuMjY4NyA2Ljg5NTgxIDEwLjYxNTggNy41NDg3MyAxMC42MTU4IDguMzU0MTVWMTYuMDEwNEMxMC42MTU4IDE2LjYxNDUgMTEuMTA1NSAxNy4xMDQxIDExLjcwOTUgMTcuMTA0MUMxMi4zMTM2IDE3LjEwNDEgMTIuODAzMyAxNi42MTQ1IDEyLjgwMzMgMTYuMDEwNFYxMy43NUgxNC45MTc5QzE1LjQ2MjMgMTMuNzUgMTUuOTU4MSAxMy42NjczIDE2LjQwNTQgMTMuNTAyMUMxNi44NTI2IDEzLjMyNzEgMTcuMjM2NiAxMy4wODg5IDE3LjU1NzQgMTIuNzg3NUMxNy44NzgzIDEyLjQ3NjQgMTguMTI2MiAxMi4xMTE4IDE4LjMwMTIgMTEuNjkzN0MxOC40NzYyIDExLjI3NTcgMTguNTYzNyAxMC44MTg3IDE4LjU2MzcgMTAuMzIyOUMxOC41NjM3IDkuODI3MDYgMTguNDc2MiA5LjM3MDEyIDE4LjMwMTIgOC45NTIwNkMxOC4xMjYyIDguNTM0MDEgMTcuODc4MyA4LjE3NDI5IDE3LjU1NzQgNy44NzI5QzE3LjIzNjYgNy41NjE3OSAxNi44NTI2IDcuMzIzNTkgMTYuNDA1NCA3LjE1ODMxQzE1Ljk1ODEgNi45ODMzMSAxNS40NjIzIDYuODk1ODEgMTQuOTE3OSA2Ljg5NTgxSDEyLjA3NDFaTTE1Ljg5NDkgMTEuMzI5MUMxNS42MzI0IDExLjU4MTkgMTUuMjgyNCAxMS43MDgzIDE0Ljg0NDkgMTEuNzA4M0gxMi44MDMzVjguOTM3NDhIMTQuODQ0OUMxNS4yODI0IDguOTM3NDggMTUuNjMyNCA5LjA2ODczIDE1Ljg5NDkgOS4zMzEyM0MxNi4xNjcyIDkuNTg0MDEgMTYuMzAzMyA5LjkxNDU2IDE2LjMwMzMgMTAuMzIyOUMxNi4zMDMzIDEwLjczMTIgMTYuMTY3MiAxMS4wNjY2IDE1Ljg5NDkgMTEuMzI5MVoiIGNsaXAtcnVsZT0iZXZlbm9kZCIgZmlsbC1ydWxlPSJldmVub2RkIi8+JiN4YTs8cGF0aCBmaWxsPSIjRTE4OEQwIiBkPSJNMC4zMzMzNDQgOS42NjY2NUMwLjMzMzM0NCA2LjM5OTY3IDAuMzMzMzQ0IDQuNzY2MTkgMC45NjkxMzkgMy41MTgzN0MxLjUyODQgMi40MjA3NiAyLjQyMDc5IDEuNTI4MzcgMy41MTg0IDAuOTY5MTA4QzQuNzY2MjIgMC4zMzMzMTMgNi4zOTk3IDAuMzMzMzEzIDkuNjY2NjggMC4zMzMzMTNIMTQuMzMzM0MxNy42MDAzIDAuMzMzMzEzIDE5LjIzMzggMC4zMzMzMTMgMjAuNDgxNiAwLjk2OTEwOEMyMS41NzkyIDEuNTI4MzcgMjIuNDcxNiAyLjQyMDc2IDIzLjAzMDkgMy41MTgzN0MyMy42NjY3IDQuNzY2MTkgMjMuNjY2NyA2LjM5OTY3IDIzLjY2NjcgOS42NjY2NVYxNC4zMzMzQzIzLjY2NjcgMTcuNjAwMyAyMy42NjY3IDE5LjIzMzggMjMuMDMwOSAyMC40ODE2QzIyLjQ3MTYgMjEuNTc5MiAyMS41NzkyIDIyLjQ3MTYgMjAuNDgxNiAyMy4wMzA4QzE5LjIzMzggMjMuNjY2NiAxNy42MDAzIDIzLjY2NjYgMTQuMzMzMyAyMy42NjY2SDkuNjY2NjhDNi4zOTk3IDIzLjY2NjYgNC43NjYyMiAyMy42NjY2IDMuNTE4NCAyMy4wMzA4QzIuNDIwNzkgMjIuNDcxNiAxLjUyODQgMjEuNTc5MiAwLjk2OTEzOSAyMC40ODE2QzAuMzMzMzQ0IDE5LjIzMzggMC4zMzMzNDQgMTcuNjAwMyAwLjMzMzM0NCAxNC4zMzMzVjkuNjY2NjVaTTkuNjY2NjggMi41MjA4MUgxNC4zMzMzQzE2LjAwMjkgMi41MjA4MSAxNy4xMjM2IDIuNTIyNTEgMTcuOTg2NSAyLjU5MzAyQzE4LjgyNCAyLjY2MTQ0IDE5LjIyNDQgMi43ODM2IDE5LjQ4ODUgMi45MTgxOEMyMC4xNzQ1IDMuMjY3NzIgMjAuNzMyMyAzLjgyNTQ2IDIxLjA4MTggNC41MTE0N0MyMS4yMTY0IDQuNzc1NjEgMjEuMzM4NSA1LjE3NjAxIDIxLjQwNyA2LjAxMzQ2QzIxLjQ3NzUgNi44NzY0NCAyMS40NzkyIDcuOTk3MDYgMjEuNDc5MiA5LjY2NjY1VjE0LjMzMzNDMjEuNDc5MiAxNi4wMDI5IDIxLjQ3NzUgMTcuMTIzNSAyMS40MDcgMTcuOTg2NUMyMS4zMzg1IDE4LjgyMzkgMjEuMjE2NCAxOS4yMjQzIDIxLjA4MTggMTkuNDg4NUMyMC43MzIzIDIwLjE3NDUgMjAuMTc0NSAyMC43MzIyIDE5LjQ4ODUgMjEuMDgxOEMxOS4yMjQ0IDIxLjIxNjQgMTguODI0IDIxLjMzODUgMTcuOTg2NSAyMS40MDY5QzE3LjEyMzYgMjEuNDc3NCAxNi4wMDI5IDIxLjQ3OTEgMTQuMzMzMyAyMS40NzkxSDkuNjY2NjhDNy45OTcwOSAyMS40NzkxIDYuODc2NDcgMjEuNDc3NCA2LjAxMzQ5IDIxLjQwNjlDNS4xNzYwNCAyMS4zMzg1IDQuNzc1NjQgMjEuMjE2NCA0LjUxMTUgMjEuMDgxOEMzLjgyNTUgMjAuNzMyMiAzLjI2Nzc1IDIwLjE3NDUgMi45MTgyMiAxOS40ODg1QzIuNzgzNjMgMTkuMjI0MyAyLjY2MTQ3IDE4LjgyMzkgMi41OTMwNSAxNy45ODY1QzIuNTIyNTQgMTcuMTIzNSAyLjUyMDg0IDE2LjAwMjkgMi41MjA4NCAxNC4zMzMzVjkuNjY2NjVDMi41MjA4NCA3Ljk5NzA2IDIuNTIyNTQgNi44NzY0NCAyLjU5MzA1IDYuMDEzNDZDMi42NjE0NyA1LjE3NjAxIDIuNzgzNjMgNC43NzU2MSAyLjkxODIyIDQuNTExNDdDMy4yNjc3NSAzLjgyNTQ2IDMuODI1NSAzLjI2NzcyIDQuNTExNSAyLjkxODE4QzQuNzc1NjQgMi43ODM2IDUuMTc2MDQgMi42NjE0NCA2LjAxMzQ5IDIuNTkzMDJDNi44NzY0NyAyLjUyMjUxIDcuOTk3MDkgMi41MjA4MSA5LjY2NjY4IDIuNTIwODFaIiBjbGlwLXJ1bGU9ImV2ZW5vZGQiIGZpbGwtcnVsZT0iZXZlbm9kZCIvPiYjeGE7PC9nPiYjeGE7PGRlZnM+JiN4YTs8Y2xpcFBhdGggaWQ9ImNsaXAwXzFfMiI+JiN4YTs8cmVjdCBmaWxsPSJ3aGl0ZSIgaGVpZ2h0PSIyNCIgd2lkdGg9IjI0Ii8+JiN4YTs8L2NsaXBQYXRoPiYjeGE7PC9kZWZzPiYjeGE7PC9zdmc+;fontColor=#212121;fontSize=14;fontFamily=VK Sans Display Regular;" vertex="1" parent="1">
          <mxGeometry x="-32" y="549" width="24" height="24" as="geometry" />
        </mxCell>
        <mxCell id="3-X2qmHWbimKNn7KAHb6-158" value="" style="shape=image;verticalLabelPosition=bottom;labelBackgroundColor=default;verticalAlign=top;aspect=fixed;imageAspect=0;image=data:image/svg+xml,PHN2ZyB4bWxucz0iaHR0cDovL3d3dy53My5vcmcvMjAwMC9zdmciIGZpbGw9Im5vbmUiIHZpZXdCb3g9IjAgMCAyNSAyNSIgaGVpZ2h0PSIyNSIgd2lkdGg9IjI1Ij4mI3hhOzxwYXRoIGZpbGw9IiNFMTg4RDAiIGQ9Ik0wIDExLjA4MzNDMCA1Ljg1ODYgLTEuMTkyMDllLTA3IDMuMjQ2MjMgMS42MjMxMSAxLjYyMzExQzMuMjQ2MjMgLTEuMTkyMDllLTA3IDUuODU4NiAwIDExLjA4MzMgMEMxNi4zMDggMCAxOC45MjA0IC0xLjE5MjA5ZS0wNyAyMC41NDM1IDEuNjIzMTFDMjIuMTY2NiAzLjI0NjIzIDIyLjE2NjYgNS44NTg2IDIyLjE2NjYgMTEuMDgzM0MyMi4xNjY2IDEyLjI0NTkgMjIuMTQzNSAxMy41NjA5IDIyLjExNDEgMTQuNjIzMUMyMi4wOTkyIDE1LjE1OTIgMjEuNjU4OSAxNS41ODMzIDIxLjEyMjYgMTUuNTgzM0MyMC41NTY2IDE1LjU4MzMgMjAuMDk4MiAxNS4xMTI1IDIwLjA5NTQgMTQuNTQ2NEMyMC4wOTQ0IDE0LjMzODQgMjAuMDkyNSAxNC4xMjE5IDIwLjA5MDYgMTMuOTA2M0MyMC4wODczIDEzLjUyMjUgMjAuMDg0IDEzLjE0MTYgMjAuMDg1NiAxMi44MTY3QzIwLjA4NzUgMTIuNDMzNiAxOS43NzY5IDEyLjEyMjQgMTkuMzkzOSAxMi4xMjI0SDIuNzcyNzNDMi4zODk2OCAxMi4xMjI0IDIuMDc5MTEgMTIuNDMzNiAyLjA4MTAyIDEyLjgxNjdDMi4wODk3NiAxNC41Njc2IDIuMTI0NTYgMTUuODYxMyAyLjI2MjQ4IDE2Ljg4NzFDMi40MzQzOSAxOC4xNjU3IDIuNzMxNDggMTguNzEzIDMuMDkyNTcgMTkuMDc0QzMuNDUzNjUgMTkuNDM1MSA0LjAwMDg5IDE5LjczMjIgNS4yNzk1MiAxOS45MDQxQzUuNTMwOTkgMTkuOTM3OSA1Ljc5ODU1IDE5Ljk2NTYgNi4wODQ5OSAxOS45ODgxQzYuNjQxNzUgMjAuMDMxOSA3LjA4MzM0IDIwLjQ4NjQgNy4wODMzNCAyMS4wNDQ5QzcuMDgzMzQgMjEuNjM0NCA2LjU5Mjc0IDIyLjEwOTcgNi4wMDQ4NCAyMi4wNjU5QzMuOTQ0ODcgMjEuOTEyMSAyLjYwMzUyIDIxLjUyMzkgMS42MjMxMSAyMC41NDM1Qy0xLjE5MjA5ZS0wNyAxOC45MjA0IDAgMTYuMzA4IDAgMTEuMDgzM1pNMjAuMDg1NiA5LjM0OTk0QzIwLjA4NzUgOS43MzI5NCAxOS43NzY5IDEwLjA0NDIgMTkuMzkzOSAxMC4wNDQySDIuNzcyNzNDMi4zODk2OCAxMC4wNDQyIDIuMDc5MTEgOS43MzI5NCAyLjA4MTAyIDkuMzQ5OTRDMi4wODk3NiA3LjU5ODk3IDIuMTI0NTYgNi4zMDUzNSAyLjI2MjQ4IDUuMjc5NTJDMi40MzQzOSA0LjAwMDg5IDIuNzMxNDggMy40NTM2NSAzLjA5MjU3IDMuMDkyNTdDMy40NTM2NSAyLjczMTQ4IDQuMDAwODkgMi40MzQzOSA1LjI3OTUyIDIuMjYyNDhDNi42MTc5MyAyLjA4MjU0IDguNDEyMjIgMi4wNzgxMiAxMS4wODMzIDIuMDc4MTJDMTMuNzU0NCAyLjA3ODEyIDE1LjU0ODcgMi4wODI1NCAxNi44ODcxIDIuMjYyNDhDMTguMTY1NyAyLjQzNDM5IDE4LjcxMyAyLjczMTQ4IDE5LjA3NCAzLjA5MjU3QzE5LjQzNTEgMy40NTM2NSAxOS43MzIyIDQuMDAwODkgMTkuOTA0MSA1LjI3OTUyQzIwLjA0MjEgNi4zMDUzNSAyMC4wNzY5IDcuNTk4OTcgMjAuMDg1NiA5LjM0OTk0Wk0xMi4yMDczIDIxLjc0MkwxMy45OTc1IDE3LjUyNjJDMTQuMDU1OCAxNy4zOTQ5IDE0LjE1MSAxNy4yMzM4IDE0LjMxNTYgMTcuMTMyOUMxNC40NjY1IDE3LjAzODQgMTQuNjM0NiAxNy4wMDk2IDE0Ljc4NjUgMTcuMDA5NkMxNC45MjIxIDE3LjAwOTYgMTUuMDY3MyAxNy4wMzQzIDE1LjIwMjcgMTcuMTA3QzE1LjMzOTIgMTcuMTgwMiAxNS40NDI1IDE3LjI4OTkgMTUuNTEwNyAxNy40MjE0QzE1LjY1MzIgMTcuNjc4NiAxNS42MzQ0IDE3Ljk1NDMgMTUuNTI0MSAxOC4xOTYzTDEzLjAwNiAyMy45NzI1QzEyLjk0MTcgMjQuMTE5NCAxMi44NDU0IDI0LjI1MzggMTIuNzA5NSAyNC4zNTU3TDEyLjcwNDUgMjQuMzU5NEMxMi41NTI5IDI0LjQ2OTcgMTIuMzc5NSAyNC41MDg5IDEyLjIxNTggMjQuNTA4OUMxMi4wNDc5IDI0LjUwODkgMTEuODgxNCAyNC40NjQyIDExLjczNSAyNC4zNjE0QzExLjU5MTkgMjQuMjYwOSAxMS40OTQxIDI0LjEyMzQgMTEuNDI4MyAyMy45Nzg1TDExLjQyNTcgMjMuOTcyOUw4LjkyODAzIDE4LjI2MTNDOC44MjUxOCAxOC4wMTE1IDguNzc1NDEgMTcuNzEyMyA4LjkxNTQ2IDE3LjQzMjFDOS4wNjk5NCAxNy4xMjMyIDkuMzY2NjQgMTcuMDA5NiA5LjY1MzY0IDE3LjAwOTZDOS44MTYzNCAxNy4wMDk2IDkuOTg0NzQgMTcuMDQ2MSAxMC4xMzU2IDE3LjE0MzdDMTAuMjg3OCAxNy4yNDE5IDEwLjM5MDYgMTcuMzgxNyAxMC40NTQ3IDE3LjUzNDVMMTIuMjA3MyAyMS43NDJaTTE4LjM3MjggMjEuMjkzNFYyMy42NDA3QzE4LjM3MjggMjMuODczNyAxOC4yODg2IDI0LjA4ODQgMTguMTIwNCAyNC4yNTY2QzE3Ljk1MjIgMjQuNDI0OCAxNy43Mzc2IDI0LjUwODkgMTcuNTA0NSAyNC41MDg5QzE3LjI3MTUgMjQuNTA4OSAxNy4wNTY4IDI0LjQyNDggMTYuODg4NiAyNC4yNTY2QzE2LjcyMDQgMjQuMDg4NCAxNi42MzYzIDIzLjg3MzcgMTYuNjM2MyAyMy42NDA3VjE3Ljg3NzlDMTYuNjM2MyAxNy42NDc0IDE2LjcxNTMgMTcuNDI2MyAxNi44OTM3IDE3LjI1NjhDMTcuMDYxMiAxNy4wOTIxIDE3LjI3MzggMTcuMDA5NiAxNy41MDQ1IDE3LjAwOTZDMTcuODQxIDE3LjAwOTYgMTguMTA2IDE3LjE4MyAxOC4yNjU2IDE3LjQ2MjRMMTguMjcxNSAxNy40NzI4TDIwLjQxNzUgMjEuNzcxNkwyMi41MDc3IDE3LjQ3NDdMMjIuNTE0NyAxNy40NjI0QzIyLjY3NDQgMTcuMTgzIDIyLjkzOTQgMTcuMDA5NiAyMy4yNzU4IDE3LjAwOTZDMjMuNTA2NSAxNy4wMDk2IDIzLjcxOTIgMTcuMDkyMSAyMy44ODY2IDE3LjI1NjlDMjQuMDY1MSAxNy40MjYzIDI0LjE0NDEgMTcuNjQ3NCAyNC4xNDQxIDE3Ljg3NzlWMjMuNjQwN0MyNC4xNDQxIDIzLjg4MDQgMjQuMDUyMSAyNC4wOTYxIDIzLjg3ODQgMjQuMjYxNEMyMy43MTUxIDI0LjQyMjMgMjMuNTA2OSAyNC41MDg5IDIzLjI3NTggMjQuNTA4OUMyMy4wNDI4IDI0LjUwODkgMjIuODI4MSAyNC40MjQ4IDIyLjY1OTkgMjQuMjU2NkMyMi40OTE3IDI0LjA4ODQgMjIuNDA3NiAyMy44NzM3IDIyLjQwNzYgMjMuNjQwN1YyMS4yNDE4TDIxLjE0MzggMjMuODE3NkwyMS4xMjk1IDIzLjgzOTVDMjAuOTY0NSAyNC4wOTE4IDIwLjcxMDQgMjQuMjUzNSAyMC4zOTAyIDI0LjI1MzVDMjAuMjI3NiAyNC4yNTM1IDIwLjA2MzcgMjQuMjE0NSAxOS45MTY3IDI0LjExOTVDMTkuNzcxNiAyNC4wMjU4IDE5LjY2OTMgMjMuODk0OCAxOS41OTk4IDIzLjc1MjFMMTguMzcyOCAyMS4yOTM0WiIgY2xpcC1ydWxlPSJldmVub2RkIiBmaWxsLXJ1bGU9ImV2ZW5vZGQiLz4mI3hhOzwvc3ZnPg==;fontColor=#212121;fontFamily=VK Sans Display Regular;fontSize=14;" vertex="1" parent="1">
          <mxGeometry x="53.25" y="543.5" width="40" height="40" as="geometry" />
        </mxCell>
        <mxCell id="102" value="" style="endArrow=none;html=1;fontFamily=VK Sans Display Regular;fontColor=#212121;rounded=0;strokeColor=#7C8A9A;endFill=0;strokeWidth=2;arcSize=8;backgroundOutline=0;entryX=0.003;entryY=0.437;entryDx=0;entryDy=0;entryPerimeter=0;exitX=0.944;exitY=0.51;exitDx=0;exitDy=0;exitPerimeter=0;fontSize=14;" parent="1" source="3-X2qmHWbimKNn7KAHb6-200" target="3-X2qmHWbimKNn7KAHb6-158" edge="1">
          <mxGeometry width="50" height="50" relative="1" as="geometry">
            <mxPoint x="-67.99999999999977" y="561" as="sourcePoint" />
            <mxPoint x="52" y="561" as="targetPoint" />
          </mxGeometry>
        </mxCell>
        <mxCell id="3-X2qmHWbimKNn7KAHb6-201" value="" style="endArrow=none;html=1;fontFamily=VK Sans Display Regular;fontColor=#212121;rounded=0;strokeColor=#7C8A9A;endFill=0;strokeWidth=2;arcSize=8;backgroundOutline=0;fontSize=14;" edge="1" parent="1" source="88" target="3-X2qmHWbimKNn7KAHb6-158">
          <mxGeometry width="50" height="50" relative="1" as="geometry">
            <mxPoint x="3" y="571" as="sourcePoint" />
            <mxPoint x="70" y="571" as="targetPoint" />
          </mxGeometry>
        </mxCell>
        <mxCell id="100" value="Ping" style="endArrow=open;html=1;fontFamily=VK Sans Display Regular;fontColor=#212121;rounded=1;strokeColor=#7C8A9A;endFill=0;arcsize=8;startArrow=open;startFill=0;strokeWidth=2;labelBackgroundColor=#FFFFFF;textOpacity=70;verticalAlign=middle;spacing=8;fontSize=14;arcSize=8;dashed=1;backgroundOutline=0;" parent="1" source="3-X2qmHWbimKNn7KAHb6-158" target="3-X2qmHWbimKNn7KAHb6-202" edge="1">
          <mxGeometry x="-0.0315" width="50" height="50" relative="1" as="geometry">
            <mxPoint x="96" y="561" as="sourcePoint" />
            <mxPoint x="800" y="561" as="targetPoint" />
            <Array as="points" />
            <mxPoint as="offset" />
          </mxGeometry>
        </mxCell>
        <mxCell id="3-X2qmHWbimKNn7KAHb6-223" value="" style="endArrow=none;html=1;fontFamily=VK Sans Display Regular;fontColor=#212121;rounded=0;strokeColor=#7C8A9A;endFill=0;strokeWidth=2;arcSize=8;backgroundOutline=0;fontSize=14;" edge="1" parent="1" source="106" target="3-X2qmHWbimKNn7KAHb6-147">
          <mxGeometry width="50" height="50" relative="1" as="geometry">
            <mxPoint x="411" y="431.83" as="sourcePoint" />
            <mxPoint x="554" y="430.83" as="targetPoint" />
          </mxGeometry>
        </mxCell>
        <mxCell id="3-X2qmHWbimKNn7KAHb6-227" value="" style="endArrow=none;html=1;fontFamily=VK Sans Display Regular;fontColor=#212121;rounded=0;strokeColor=#7C8A9A;endFill=0;strokeWidth=2;arcSize=8;backgroundOutline=0;fontSize=14;" edge="1" parent="1" source="3-X2qmHWbimKNn7KAHb6-148">
          <mxGeometry width="50" height="50" relative="1" as="geometry">
            <mxPoint x="73.15000000000006" y="290" as="sourcePoint" />
            <mxPoint x="73.15000000000006" y="247" as="targetPoint" />
          </mxGeometry>
        </mxCell>
      </root>
    </mxGraphModel>
  </diagram>
</mxfile>
